<svg xmlns="http://www.w3.org/2000/svg" viewBox="0 0 1024 1024" version="1.1">
<g id="Parent-Group"><g id="Group-rgba(0,0,0,0)" fill="rgba(0,0,0,0)">
<path fill="rgba(0,0,0,0)" opacity="1.00" d=" M 0.00 0.00 L 1024.00 0.00 L 1024.00 821.41 C 984.35 821.64 944.69 821.36 905.04 821.62 C 915.11 814.62 923.02 804.59 927.14 793.01 C 935.53 770.34 931.77 745.26 924.00 722.98 C 922.36 716.87 918.75 711.35 917.74 705.11 C 917.72 643.98 917.89 582.84 918.12 521.71 C 929.33 515.86 937.90 505.27 941.45 493.15 C 945.41 479.78 944.56 464.96 938.82 452.22 C 934.61 442.96 927.33 435.13 918.32 430.37 C 918.33 359.90 918.50 289.43 918.56 218.97 C 918.76 216.23 917.64 213.02 914.75 212.22 C 909.87 211.43 904.88 212.00 899.96 211.76 C 795.66 209.61 691.34 210.57 587.03 210.46 C 532.01 210.43 477.00 210.79 421.98 210.84 C 335.66 211.54 249.32 211.62 162.99 211.90 C 151.01 212.27 139.02 212.03 127.04 212.22 C 124.01 212.09 121.54 214.97 121.74 217.92 C 122.69 355.30 122.64 492.68 122.90 630.06 C 123.23 682.38 123.02 734.71 123.14 787.03 C 123.25 791.59 122.73 796.19 123.34 800.73 C 123.92 803.19 126.66 803.92 128.88 803.73 C 141.67 803.54 154.46 803.87 167.24 803.70 C 167.18 809.63 167.13 815.57 167.16 821.51 C 111.44 821.40 55.72 821.45 0.00 821.55 L 0.00 0.00 Z" />
<path fill="rgba(0,0,0,0)" opacity="1.00" d=" M 139.61 228.90 C 256.08 228.25 372.53 227.43 489.00 227.34 C 596.33 227.21 703.66 227.16 810.99 227.24 C 840.90 227.29 870.81 227.38 900.72 227.69 C 900.62 278.79 901.10 329.89 901.20 380.99 C 901.33 394.84 901.14 408.70 901.48 422.56 C 887.63 418.03 870.38 418.61 859.60 429.53 C 858.86 428.31 858.13 427.10 857.41 425.89 C 867.95 412.22 873.39 395.08 874.48 377.98 C 874.81 374.84 873.92 371.45 875.55 368.56 C 881.52 356.25 882.09 341.69 878.17 328.67 C 873.68 313.18 863.80 299.75 851.89 289.10 C 825.95 266.48 792.78 250.96 758.01 250.18 C 734.08 249.35 710.04 254.94 688.74 265.82 C 686.87 266.78 685.02 267.88 682.96 268.37 C 665.77 271.87 649.18 278.70 634.75 288.71 C 620.01 299.01 609.28 314.62 604.52 331.92 C 599.62 349.58 599.59 369.10 606.96 386.09 C 610.16 393.12 614.22 400.78 621.91 403.65 C 617.25 423.15 615.70 443.95 621.40 463.41 C 626.35 481.39 637.35 497.39 651.46 509.45 C 666.17 521.65 683.82 530.33 702.49 534.42 C 703.39 543.76 702.66 553.38 699.16 562.16 C 689.00 562.15 679.05 564.54 669.30 567.16 C 632.33 577.04 596.81 592.30 564.05 612.05 C 556.97 616.48 549.96 621.04 543.23 626.00 C 532.99 618.95 521.70 613.53 511.57 606.29 C 496.51 595.87 481.93 584.72 468.20 572.59 C 467.78 543.29 467.32 513.98 466.64 484.68 C 479.35 484.48 492.08 484.70 504.79 484.52 C 507.20 486.16 509.94 488.04 513.04 487.36 C 518.33 486.69 521.98 480.25 519.34 475.46 C 517.37 470.59 510.47 468.94 506.52 472.40 C 503.83 474.37 503.28 477.83 503.25 480.93 C 489.90 480.93 476.50 480.42 463.17 481.18 C 463.19 504.80 464.16 528.42 464.20 552.05 C 464.20 557.93 464.33 563.81 464.64 569.68 C 461.75 567.46 459.04 564.46 455.06 564.70 C 449.54 548.89 438.08 536.16 426.44 524.52 C 418.17 516.47 409.85 508.43 400.85 501.21 C 397.26 498.57 392.80 495.27 388.13 497.05 C 384.51 498.64 384.19 503.23 385.39 506.52 C 387.95 513.89 392.92 520.08 397.23 526.48 C 392.05 525.86 385.56 524.14 381.42 528.42 C 377.57 532.41 378.47 538.47 380.43 543.14 C 379.89 545.14 378.29 546.81 378.22 548.96 C 377.97 552.29 379.71 555.24 381.31 558.01 C 380.77 561.61 381.58 565.27 383.43 568.39 C 387.21 574.77 392.56 580.37 399.17 583.83 C 402.51 585.60 406.71 585.40 409.64 582.89 C 415.05 586.31 420.80 589.32 426.95 591.18 C 423.34 593.71 419.87 596.64 417.65 600.52 C 416.42 602.42 417.46 604.71 418.31 606.53 C 421.07 611.66 424.73 616.24 428.12 620.96 C 437.92 634.02 448.16 646.75 459.00 658.96 C 473.20 674.86 488.95 689.72 507.44 700.52 C 517.19 705.97 527.79 710.56 539.03 711.48 C 557.30 710.38 575.22 705.71 592.47 699.76 C 588.18 729.24 584.99 758.91 583.86 788.69 C 483.90 788.75 383.93 788.78 283.96 788.39 C 235.52 788.33 187.08 787.83 138.63 787.89 C 139.58 742.96 139.10 698.00 139.25 653.06 C 139.48 511.67 139.73 370.29 139.61 228.90 M 406.18 265.26 C 390.78 269.31 379.23 284.21 378.32 299.97 C 378.08 310.04 385.11 318.46 392.66 324.29 C 405.75 334.31 426.14 333.49 437.80 321.64 C 439.88 320.01 437.42 316.26 435.16 317.84 C 430.30 321.31 425.15 324.73 419.13 325.71 C 406.65 328.09 393.68 321.31 386.99 310.82 C 384.26 306.78 382.65 301.79 383.84 296.93 C 386.60 282.45 399.49 268.77 415.00 269.54 C 416.88 269.94 418.93 267.86 417.98 266.05 C 414.78 263.09 409.97 264.59 406.18 265.26 M 247.51 283.58 C 244.09 286.96 243.78 291.99 244.06 296.51 C 240.25 296.57 236.40 296.27 232.66 297.15 C 232.43 298.98 232.24 300.82 232.07 302.66 C 222.99 302.82 213.92 303.20 204.84 303.52 C 202.39 303.38 200.37 305.52 200.71 307.98 C 200.65 358.97 200.42 409.95 200.58 460.94 C 200.39 463.78 201.42 467.80 204.99 467.70 C 252.71 465.99 300.44 464.55 348.16 462.91 C 350.76 463.06 352.91 460.74 352.72 458.17 C 353.12 439.06 353.46 419.94 353.57 400.82 C 374.49 400.66 395.39 399.60 416.30 399.09 C 416.36 410.40 416.60 421.72 416.47 433.03 C 416.51 435.12 416.31 437.63 418.06 439.15 C 419.87 440.12 422.01 439.66 423.98 439.72 C 446.28 438.83 468.60 438.49 490.90 437.67 C 492.64 437.46 494.09 435.82 493.91 434.04 C 493.93 420.01 493.70 405.99 493.65 391.96 C 502.36 390.68 511.16 390.24 519.93 389.53 C 519.84 392.96 519.79 396.39 519.79 399.83 C 517.74 400.59 515.45 401.16 514.01 402.94 C 510.71 406.55 511.24 412.91 515.43 415.64 C 519.97 419.25 527.40 416.50 528.85 410.97 C 530.32 406.53 527.07 402.46 523.52 400.22 C 523.46 395.35 523.74 390.48 523.39 385.63 C 513.47 386.26 503.59 387.41 493.70 388.28 C 493.38 375.18 493.55 362.07 493.32 348.98 C 493.42 346.72 491.11 345.22 489.03 345.59 C 465.69 346.43 442.31 346.69 418.97 347.50 C 416.04 347.50 415.77 350.80 415.88 352.99 C 416.24 367.13 416.18 381.29 416.29 395.44 C 395.40 396.28 374.49 396.97 353.58 397.25 C 353.89 365.81 354.49 334.38 354.59 302.94 C 354.91 300.39 352.57 298.25 350.06 298.54 C 332.91 299.37 315.74 300.07 298.59 300.84 C 297.95 298.97 297.79 296.00 295.17 295.95 C 292.03 295.81 288.91 296.29 285.78 296.33 C 285.40 292.26 285.89 287.49 282.75 284.33 C 273.92 274.31 257.01 274.72 247.51 283.58 M 413.67 283.63 C 407.68 287.88 402.81 294.03 400.62 301.09 C 399.13 305.58 400.06 311.12 403.96 314.12 C 407.34 316.74 412.11 315.51 415.40 313.36 C 419.99 310.49 421.94 305.06 425.94 301.61 C 427.63 302.81 430.61 304.25 430.14 306.69 C 427.87 307.73 425.30 307.86 423.06 308.95 C 421.42 309.53 422.06 311.56 421.82 312.86 C 426.86 314.28 432.99 312.03 435.08 307.04 C 435.71 302.46 431.42 299.38 427.97 297.33 C 428.63 293.39 429.16 288.86 426.75 285.38 C 423.77 281.35 417.63 280.63 413.67 283.63 M 578.60 285.59 C 575.46 287.12 574.86 290.85 574.50 293.96 C 560.83 298.57 546.40 301.44 531.93 300.65 C 529.26 300.53 526.58 299.85 523.92 300.37 C 522.10 303.51 525.95 303.81 528.00 303.98 C 544.00 305.36 560.38 303.07 575.39 297.38 C 577.54 299.26 579.97 301.41 583.05 301.24 C 588.50 301.42 592.84 295.22 590.62 290.16 C 589.30 285.19 582.90 282.81 578.60 285.59 M 482.53 286.75 C 472.63 288.59 462.85 292.59 455.26 299.31 C 453.47 300.45 453.81 303.08 455.95 303.58 C 468.29 292.53 485.67 287.72 502.01 289.79 C 504.52 290.61 505.14 286.94 502.87 286.41 C 496.17 285.20 489.22 285.62 482.53 286.75 M 481.19 316.12 C 478.68 321.30 483.38 327.82 489.02 327.29 C 491.84 327.36 494.07 325.51 496.10 323.80 C 501.12 327.10 506.38 330.02 511.47 333.23 C 512.05 332.37 512.63 331.51 513.21 330.65 C 508.45 326.69 502.73 324.16 497.53 320.87 C 497.10 317.72 496.50 314.12 493.58 312.26 C 489.48 309.03 482.68 311.06 481.19 316.12 M 381.30 362.18 C 375.94 364.58 374.77 372.89 379.72 376.32 C 384.62 380.70 393.46 376.59 393.21 370.02 C 393.60 364.06 386.64 359.38 381.30 362.18 M 574.15 364.26 C 569.64 366.68 568.92 372.46 568.77 377.06 C 568.39 382.04 569.88 387.82 574.43 390.52 C 577.96 391.42 580.79 388.01 581.97 385.06 C 583.85 379.99 584.12 374.29 582.99 369.01 C 582.22 365.19 577.81 362.51 574.15 364.26 M 540.52 375.37 C 537.28 382.68 546.39 390.26 553.34 387.26 C 556.43 390.02 559.46 392.87 562.96 395.12 C 561.65 397.57 559.78 400.22 560.88 403.14 C 561.61 405.75 565.07 405.72 566.27 408.04 C 564.80 408.27 563.35 408.52 561.90 408.80 C 560.77 410.76 559.39 412.76 559.38 415.11 C 559.46 417.33 561.08 419.09 562.87 420.23 C 567.37 420.64 571.51 417.39 572.63 413.08 C 573.86 417.64 576.48 422.02 580.76 424.27 C 582.47 424.98 584.57 425.17 586.12 423.95 C 587.24 419.38 585.11 414.79 583.14 410.77 C 581.63 407.84 578.77 404.30 575.04 405.84 C 572.36 406.21 571.74 409.16 570.44 411.05 C 570.16 409.49 569.93 407.95 569.66 406.41 C 574.55 405.69 580.40 401.52 578.13 395.92 C 581.45 394.83 584.81 392.98 586.62 389.87 C 587.62 388.38 585.99 387.18 585.09 386.26 C 583.01 388.09 581.28 390.36 578.88 391.79 C 575.29 393.50 571.12 393.31 567.29 392.74 C 563.40 391.27 560.29 388.39 557.05 385.89 C 559.74 384.19 561.85 381.25 560.74 377.92 C 559.04 368.90 544.72 367.95 540.52 375.37 M 544.31 391.19 C 543.16 392.08 542.35 393.40 542.30 394.87 C 541.91 399.56 542.76 404.29 544.22 408.73 C 545.04 411.00 546.17 413.44 548.38 414.67 C 551.26 415.84 554.02 413.34 554.76 410.68 C 555.80 406.94 555.80 402.97 555.50 399.13 C 555.12 395.44 551.87 392.97 548.89 391.25 C 547.51 390.30 545.63 390.00 544.31 391.19 M 563.11 421.88 C 561.55 423.64 559.45 425.44 559.61 428.04 C 559.73 431.76 562.62 434.46 564.94 437.06 C 566.96 439.12 569.01 441.62 572.03 442.13 C 575.10 441.82 577.01 438.81 577.21 435.95 C 578.68 428.08 570.79 420.90 563.11 421.88 M 602.23 426.22 C 596.55 427.94 594.37 436.04 598.90 440.10 C 602.77 444.34 610.15 442.63 612.33 437.50 C 615.44 431.47 608.51 423.93 602.23 426.22 M 399.35 457.36 C 393.60 459.70 392.04 468.22 396.69 472.38 C 401.25 477.30 410.63 474.89 411.85 468.15 C 414.03 461.12 406.00 454.14 399.35 457.36 M 252.51 491.40 C 247.47 493.73 242.98 498.28 242.37 504.01 C 241.84 508.77 245.47 513.52 250.17 514.35 C 255.07 515.46 260.00 513.63 264.93 514.16 C 265.46 516.89 265.72 519.66 265.97 522.44 C 267.22 522.39 268.47 522.33 269.72 522.28 C 270.06 518.05 270.26 512.37 266.03 509.95 C 260.49 508.19 254.20 512.08 248.87 509.07 C 245.48 506.71 246.71 501.72 249.21 499.17 C 254.60 493.52 264.50 490.70 271.03 496.03 C 276.42 500.38 276.93 507.76 277.40 514.14 C 276.93 516.90 281.78 516.67 281.32 514.06 C 281.93 506.51 279.90 498.11 274.05 492.94 C 268.07 487.93 259.24 487.89 252.51 491.40 M 238.88 526.75 C 236.44 534.91 233.14 542.84 231.71 551.28 C 227.26 551.30 222.79 551.11 218.37 551.78 C 218.44 552.60 218.57 554.25 218.63 555.08 C 222.91 555.51 227.21 555.26 231.50 555.09 C 231.13 565.01 234.28 575.43 241.79 582.23 C 247.36 587.76 255.16 590.33 262.86 590.90 C 262.86 605.09 262.91 619.28 262.87 633.47 C 250.26 633.84 237.64 633.61 225.05 634.34 C 222.17 634.19 219.65 636.24 219.03 639.01 C 218.00 643.67 218.59 648.50 218.63 653.23 C 214.97 653.14 210.73 653.18 208.14 656.20 C 202.81 662.07 200.40 670.24 200.03 678.03 C 199.55 680.48 201.44 682.10 203.25 683.31 C 202.02 689.78 200.02 696.32 200.84 702.97 C 200.95 705.49 203.38 707.50 202.54 710.12 C 201.42 716.40 200.54 723.20 203.80 729.03 C 203.91 734.50 200.65 740.66 204.23 745.69 C 207.86 750.19 213.71 745.97 218.31 745.83 C 219.13 747.00 219.90 748.23 220.88 749.30 C 222.39 749.44 223.54 748.35 224.74 747.65 C 227.70 745.56 231.48 745.53 234.95 745.35 C 281.98 744.68 329.00 743.45 376.02 742.47 C 377.94 742.80 379.37 740.93 378.85 739.13 C 378.73 737.33 376.40 737.55 375.14 737.37 C 364.65 737.09 354.15 737.55 343.66 737.43 C 343.31 737.75 342.61 738.38 342.25 738.70 C 306.81 739.53 271.37 740.32 235.93 740.86 C 231.90 740.92 227.88 741.25 223.92 741.92 C 224.05 736.01 223.66 730.08 224.10 724.18 C 228.37 723.57 232.71 723.95 237.01 723.75 C 283.98 722.50 330.95 721.64 377.92 720.48 C 379.57 720.66 378.53 718.20 378.87 717.25 C 327.22 718.06 275.58 719.76 223.92 720.58 C 223.87 714.12 223.77 707.67 223.87 701.22 C 271.18 699.66 318.54 699.48 365.84 697.84 C 365.78 697.14 365.67 695.73 365.61 695.03 C 361.50 694.73 357.38 694.85 353.27 695.07 C 310.11 695.87 266.96 696.86 223.81 698.04 C 223.62 691.24 223.51 684.44 223.62 677.64 C 227.42 677.49 231.23 677.46 235.04 677.54 C 236.95 679.95 240.58 680.32 242.28 677.45 C 259.02 676.93 275.76 676.75 292.50 676.68 C 292.58 678.76 292.72 680.84 293.06 682.91 C 294.53 682.93 296.10 683.39 297.49 682.69 C 298.31 680.70 298.28 678.52 298.52 676.43 C 308.53 675.61 318.62 676.38 328.59 675.18 C 327.60 674.29 326.36 673.95 325.05 674.11 C 316.12 674.15 307.19 674.14 298.26 674.24 C 298.14 669.62 298.14 665.01 298.09 660.41 C 302.29 660.23 306.51 660.47 310.69 659.95 C 307.02 657.50 302.26 659.07 298.13 658.81 C 297.90 655.22 299.26 648.67 293.99 648.39 C 275.98 648.81 257.98 650.01 239.97 650.35 C 238.05 650.27 235.44 650.88 235.36 653.24 C 234.91 660.22 235.62 667.24 235.44 674.24 C 231.48 674.26 227.53 674.27 223.58 674.25 C 223.67 662.75 222.95 651.21 223.81 639.74 C 228.46 638.60 233.25 638.69 238.00 638.61 C 261.99 638.31 285.99 637.30 309.98 638.33 C 311.38 638.54 314.07 638.05 313.56 636.09 C 313.68 633.86 310.80 633.61 309.16 633.52 C 295.16 632.96 281.14 633.29 267.13 633.30 C 267.01 619.10 266.85 604.90 266.88 590.70 C 276.88 589.76 286.17 583.88 291.22 575.19 C 295.16 568.94 296.16 561.44 296.17 554.19 C 303.14 554.14 310.14 554.13 317.06 553.20 C 322.10 552.55 326.80 549.96 330.06 546.06 C 331.37 543.94 334.10 544.57 336.14 543.85 C 340.75 542.50 343.21 536.74 341.24 532.41 C 339.74 528.55 335.17 526.13 331.15 527.33 C 327.34 528.23 324.49 532.06 324.72 535.97 C 324.60 538.75 326.53 540.93 328.02 543.06 C 325.18 545.68 322.07 548.22 318.20 549.09 C 310.87 550.76 303.29 550.19 295.84 550.53 C 293.74 541.66 290.24 533.23 287.08 524.71 C 273.08 523.88 259.02 524.59 244.99 524.39 C 242.88 524.63 239.35 523.88 238.88 526.75 M 550.99 536.08 C 547.89 538.12 547.50 542.00 547.44 545.39 C 539.77 549.95 532.08 554.53 524.85 559.77 C 525.43 560.72 526.02 561.67 526.66 562.60 C 534.20 558.12 541.56 553.33 548.93 548.58 C 551.30 550.13 553.94 552.06 556.97 551.44 C 562.21 550.99 566.11 545.05 564.05 540.10 C 562.41 534.89 555.28 532.55 550.99 536.08 M 602.40 555.53 C 596.32 557.34 594.70 566.40 599.86 570.14 C 604.73 574.61 613.38 570.43 613.39 563.96 C 613.91 558.30 607.72 553.55 602.40 555.53 M 322.59 607.94 C 322.57 627.28 322.65 646.63 322.61 665.98 C 322.10 668.61 325.04 668.78 326.91 668.82 C 349.94 668.92 372.98 668.79 396.02 668.84 C 397.62 668.94 399.56 667.75 399.36 665.96 C 399.46 660.57 399.21 655.19 399.44 649.81 C 405.94 650.06 412.87 650.45 418.47 654.17 C 414.87 658.20 414.28 665.53 419.54 668.45 C 425.24 672.56 433.95 666.72 432.60 659.93 C 431.98 654.87 426.73 651.94 421.97 652.36 C 415.68 647.21 407.23 646.14 399.37 646.19 C 399.39 633.79 399.35 621.38 399.38 608.98 C 399.68 606.93 398.40 604.57 396.08 604.82 C 372.67 604.94 349.26 604.83 325.86 604.90 C 324.05 604.81 322.14 605.87 322.59 607.94 M 357.48 673.20 C 357.54 674.07 357.64 674.96 357.77 675.84 C 361.76 675.94 365.76 675.90 369.75 675.65 C 369.78 674.96 369.84 673.60 369.87 672.91 C 365.75 672.88 361.54 672.41 357.48 673.20 M 231.79 690.46 C 231.77 691.40 231.72 693.30 231.70 694.25 C 237.76 695.09 243.88 694.20 249.96 694.08 C 261.47 693.31 273.08 693.30 284.48 691.38 C 279.47 688.65 273.51 689.42 268.02 689.12 C 258.68 688.66 249.33 689.16 239.98 689.33 C 237.22 689.36 234.44 689.61 231.79 690.46 M 430.15 706.97 C 425.75 709.38 420.84 710.97 416.92 714.17 C 417.30 715.31 418.08 716.24 418.77 717.22 C 427.62 712.43 436.84 708.33 445.72 703.60 C 446.38 702.28 445.85 700.03 443.95 700.65 C 439.07 702.03 434.74 704.87 430.15 706.97 M 235.19 710.15 C 247.13 709.77 259.05 708.63 271.01 708.37 C 275.90 708.09 280.86 708.53 285.67 707.43 C 283.14 704.93 279.32 705.25 276.06 704.93 C 262.38 704.50 248.65 704.27 235.00 705.27 C 231.63 705.33 231.79 710.54 235.19 710.15 M 424.58 724.61 C 422.99 725.64 420.63 726.11 419.85 728.00 C 420.08 728.67 420.52 730.03 420.74 730.71 C 425.91 728.84 430.60 725.89 435.55 723.53 C 440.76 720.57 446.58 718.72 451.51 715.26 C 451.13 714.58 450.38 713.23 450.01 712.55 C 441.11 715.56 433.02 720.54 424.58 724.61 M 437.31 734.41 C 435.83 735.30 437.69 736.94 438.13 737.94 C 441.98 736.16 445.92 734.41 449.40 731.96 C 449.71 730.57 449.28 729.48 448.09 728.70 C 444.31 730.17 440.67 732.13 437.31 734.41 Z" />
<path fill="rgba(0,0,0,0)" opacity="1.00" d=" M 250.63 287.82 C 257.66 280.44 270.76 279.58 278.22 286.79 C 282.12 290.32 279.12 296.57 282.34 300.37 C 285.80 302.19 289.90 301.00 293.64 301.05 C 293.84 309.08 293.85 317.12 294.14 325.16 C 275.49 325.95 256.84 326.95 238.17 327.25 C 237.80 318.73 237.28 310.22 237.14 301.69 C 240.62 301.47 244.44 302.31 247.65 300.59 C 250.16 296.80 247.55 291.44 250.63 287.82 Z" />
<path fill="rgba(0,0,0,0)" opacity="1.00" d=" M 410.27 293.38 C 412.92 290.52 415.72 286.93 419.88 286.50 C 424.41 287.01 424.63 292.16 423.99 295.65 C 421.92 294.56 419.87 292.22 417.31 293.29 C 415.10 295.85 418.33 298.20 419.92 299.96 C 417.57 303.98 415.11 308.61 410.59 310.48 C 407.98 311.60 404.91 309.72 404.67 306.91 C 403.98 301.77 407.36 297.27 410.27 293.38 Z" />
<path fill="rgba(0,0,0,0)" opacity="1.00" d=" M 580.49 289.63 C 582.59 288.56 586.09 289.34 586.51 291.99 C 587.36 294.52 584.61 297.42 582.03 296.61 C 579.17 295.96 578.11 291.36 580.49 289.63 Z" />
<path fill="rgba(0,0,0,0)" opacity="1.00" d=" M 298.72 305.67 C 315.74 305.24 332.74 304.16 349.76 303.67 C 349.58 333.78 349.18 363.88 348.77 393.99 C 348.39 415.25 348.66 436.54 347.74 457.79 C 300.39 459.66 253.01 460.94 205.65 462.81 C 205.01 430.88 205.54 398.95 205.40 367.02 C 205.46 347.53 205.40 328.04 205.62 308.55 C 214.49 308.18 223.36 307.76 232.24 307.61 C 232.49 312.03 232.89 316.46 232.69 320.88 C 230.73 323.06 227.61 324.74 227.54 328.05 C 227.10 331.07 230.29 333.01 232.99 332.65 C 254.00 331.84 275.01 331.02 296.02 330.09 C 299.32 329.79 302.75 329.97 305.95 328.94 C 308.05 328.65 308.24 325.47 306.52 324.55 C 304.25 323.36 301.61 323.30 299.15 322.85 C 298.68 317.13 298.79 311.40 298.72 305.67 M 293.54 340.50 C 289.64 345.75 291.39 353.72 296.50 357.51 C 297.51 358.47 299.28 359.19 298.90 360.92 C 299.20 371.25 293.85 380.43 291.13 390.12 C 288.38 391.73 285.49 393.12 282.93 395.04 C 281.51 395.75 281.51 397.43 282.21 398.67 C 284.34 399.54 285.86 397.49 287.60 396.65 C 292.01 394.13 296.75 391.58 301.94 391.44 C 312.75 395.21 323.06 400.33 333.14 405.73 C 335.19 406.91 336.84 403.51 334.65 402.53 C 325.87 397.10 316.21 393.25 306.85 388.95 C 305.48 388.41 305.69 386.62 305.27 385.47 C 303.75 377.04 301.69 368.58 302.39 359.96 C 305.04 359.35 307.73 358.56 309.86 356.79 C 314.87 353.08 315.76 345.05 311.75 340.32 C 307.26 334.97 297.85 334.92 293.54 340.50 M 251.91 343.76 C 245.07 347.14 243.38 356.70 246.91 363.04 C 249.11 367.43 253.48 370.27 258.26 371.07 C 259.29 380.10 256.11 388.80 251.91 396.63 C 241.60 399.93 231.25 403.17 221.16 407.08 C 221.43 408.08 221.71 409.08 222.01 410.09 C 230.05 408.44 237.59 405.09 245.40 402.64 C 251.04 400.91 256.66 399.14 262.28 397.36 C 264.45 402.29 268.41 406.11 272.61 409.34 C 279.90 414.80 288.13 418.86 296.48 422.41 C 297.07 421.50 297.61 420.57 298.16 419.65 C 288.08 414.04 276.99 409.54 268.92 400.97 C 266.22 397.90 265.43 393.76 264.55 389.90 C 263.46 383.55 262.10 377.21 261.90 370.75 C 268.92 370.13 273.39 362.70 272.46 356.08 C 271.80 346.74 260.47 339.51 251.91 343.76 M 326.34 361.31 C 321.88 368.62 316.80 376.66 317.81 385.61 C 318.52 385.69 319.93 385.85 320.64 385.93 C 321.62 381.09 322.36 376.09 324.75 371.68 C 326.42 367.98 329.26 364.86 330.35 360.89 C 329.05 360.84 327.13 359.65 326.34 361.31 M 278.46 382.06 C 278.00 384.14 279.06 386.11 281.28 386.38 C 282.25 381.07 283.39 375.72 285.94 370.91 C 286.90 368.65 288.75 366.54 288.29 363.94 C 287.70 363.90 286.53 363.84 285.95 363.81 C 282.33 369.30 279.46 375.52 278.46 382.06 M 245.36 419.54 C 240.80 420.59 237.83 425.45 238.50 429.99 C 239.07 434.89 244.29 438.57 249.11 437.75 C 254.06 437.11 257.90 431.84 256.66 426.92 C 255.88 421.84 250.36 418.03 245.36 419.54 Z" />
<path fill="rgba(0,0,0,0)" opacity="1.00" d=" M 488.14 322.94 C 484.38 322.32 484.18 315.69 488.13 315.30 C 490.69 314.63 492.30 316.94 493.03 319.05 C 492.05 320.93 490.73 323.53 488.14 322.94 Z" />
<path fill="rgba(0,0,0,0)" opacity="1.00" d=" M 709.61 315.86 C 712.51 332.23 722.34 346.52 734.22 357.78 C 751.11 373.62 773.09 383.73 795.90 387.29 C 795.37 399.03 796.91 410.98 801.88 421.73 C 795.23 421.90 788.60 422.46 781.97 422.92 C 780.20 415.50 776.20 408.59 770.27 403.74 C 760.02 394.98 745.36 392.68 732.46 395.67 C 724.06 397.48 715.99 401.85 710.75 408.78 C 706.85 413.65 704.85 419.71 703.65 425.75 C 699.43 425.79 695.21 426.08 691.00 426.20 C 689.83 414.50 682.26 403.58 671.50 398.72 C 658.45 392.62 641.92 395.67 631.74 405.80 C 629.13 408.26 627.41 411.44 625.20 414.22 C 626.32 408.37 628.05 402.65 629.89 397.00 C 630.53 394.20 633.46 393.13 635.54 391.59 C 652.41 380.13 668.49 367.41 682.86 352.91 C 693.50 341.95 703.41 329.95 709.61 315.86 Z" />
<path fill="rgba(0,0,0,0)" opacity="1.00" d=" M 300.22 341.01 C 303.58 339.61 307.81 341.07 309.33 344.44 C 311.87 348.93 308.14 355.25 303.04 355.35 C 298.41 355.41 294.99 350.38 295.59 346.05 C 295.71 343.50 297.97 341.74 300.22 341.01 Z" />
<path fill="rgba(0,0,0,0)" opacity="1.00" d=" M 254.29 347.05 C 261.31 344.34 269.56 351.58 268.42 358.93 C 268.44 365.00 261.04 368.66 255.88 366.07 C 248.07 363.42 246.49 350.65 254.29 347.05 Z" />
<path fill="rgba(0,0,0,0)" opacity="1.00" d=" M 421.57 353.24 C 443.61 352.76 465.65 352.20 487.69 351.52 C 487.59 378.30 488.14 405.07 488.17 431.84 C 466.27 432.61 444.36 433.27 422.45 433.93 C 422.14 407.03 421.91 380.14 421.57 353.24 M 443.52 373.82 C 441.06 374.02 438.57 374.06 436.16 374.56 C 434.61 374.90 433.00 376.25 433.54 378.02 C 434.10 380.49 437.11 380.17 439.06 380.11 C 448.00 379.37 456.93 378.51 465.85 377.51 C 469.52 376.92 473.40 376.90 476.82 375.27 C 477.63 372.13 474.16 372.17 472.01 372.14 C 462.50 372.36 453.01 373.23 443.52 373.82 M 437.05 392.52 C 433.94 392.49 433.16 396.79 436.02 397.82 C 442.38 398.20 448.69 396.89 455.01 396.37 C 461.41 395.40 468.00 395.12 474.15 392.94 C 471.67 390.60 468.11 391.39 465.03 391.35 C 455.71 391.79 446.34 391.58 437.05 392.52 M 441.96 414.29 C 439.99 414.64 437.76 414.79 436.26 416.28 C 435.41 418.22 436.79 420.56 438.98 420.53 C 445.42 420.28 451.74 418.85 458.13 418.06 C 463.98 417.10 469.96 416.66 475.67 414.97 C 475.66 414.19 475.65 412.63 475.65 411.86 C 473.80 411.49 471.93 411.19 470.05 411.33 C 460.64 411.79 451.30 413.09 441.96 414.29 Z" />
<path fill="rgba(0,0,0,0)" opacity="1.00" d=" M 383.37 366.33 C 386.21 364.72 389.53 367.96 388.31 370.90 C 387.89 373.93 383.25 374.69 381.80 372.09 C 380.43 370.23 381.43 367.35 383.37 366.33 Z" />
<path fill="rgba(0,0,0,0)" opacity="1.00" d=" M 573.62 371.41 C 573.74 368.94 576.32 368.57 578.22 368.06 C 580.10 372.39 579.64 377.32 578.76 381.84 C 578.42 383.75 576.32 387.17 574.35 384.76 C 572.12 380.77 573.14 375.74 573.62 371.41 Z" />
<path fill="rgba(0,0,0,0)" opacity="1.00" d=" M 547.25 375.25 C 550.57 374.25 556.31 374.43 556.58 379.01 C 555.44 384.94 545.40 384.56 543.96 378.91 C 543.95 377.02 545.58 375.75 547.25 375.25 Z" />
<path fill="rgba(0,0,0,0)" opacity="1.00" d=" M 299.87 376.59 C 300.55 380.32 301.17 384.07 301.89 387.81 C 299.69 387.96 297.49 388.11 295.30 388.33 C 296.91 384.45 298.28 380.47 299.87 376.59 Z" />
<path fill="rgba(0,0,0,0)" opacity="1.00" d=" M 256.56 395.18 C 257.79 392.38 258.80 389.50 260.02 386.70 C 260.65 389.20 261.07 391.76 261.55 394.30 C 259.89 394.59 258.22 394.88 256.56 395.18 Z" />
<path fill="rgba(0,0,0,0)" opacity="1.00" d=" M 550.07 411.07 C 547.04 406.44 545.91 400.67 546.63 395.21 C 548.27 395.73 550.66 395.96 550.99 398.11 C 551.89 402.40 551.31 406.90 550.07 411.07 Z" />
<path fill="rgba(0,0,0,0)" opacity="1.00" d=" M 566.87 398.02 C 569.18 396.26 572.31 397.18 574.89 397.78 C 573.03 401.66 568.75 403.32 564.70 401.96 C 565.26 400.59 565.46 398.84 566.87 398.02 Z" />
<path fill="rgba(0,0,0,0)" opacity="1.00" d=" M 736.53 400.72 C 747.31 398.81 759.06 401.53 767.47 408.66 C 778.61 418.88 780.76 437.56 771.77 449.84 C 763.10 462.19 745.71 465.64 731.85 461.41 C 723.34 458.89 715.73 452.94 711.95 444.84 C 707.22 434.71 708.10 421.98 714.81 412.94 C 720.01 406.13 728.16 402.03 736.53 400.72 M 744.16 417.27 C 741.16 418.54 739.67 421.81 739.34 424.88 C 738.84 429.02 739.01 433.84 742.05 437.05 C 744.79 439.86 749.94 439.19 751.97 435.85 C 754.86 431.38 754.86 425.25 752.51 420.54 C 751.08 417.54 747.25 415.80 744.16 417.27 Z" />
<path fill="rgba(0,0,0,0)" opacity="1.00" d=" M 651.55 401.78 C 660.96 399.76 671.30 403.06 677.76 410.20 C 686.62 419.73 688.23 435.19 681.18 446.20 C 673.00 459.83 653.01 464.18 639.96 455.07 C 628.25 447.59 624.06 431.23 629.75 418.75 C 633.54 409.86 642.18 403.61 651.55 401.78 M 658.11 415.07 C 655.42 415.81 653.94 418.52 653.40 421.08 C 652.57 425.15 652.58 429.67 654.61 433.41 C 656.18 436.35 660.13 437.53 663.13 436.19 C 666.06 434.66 667.40 431.28 667.69 428.14 C 667.98 424.50 667.94 420.46 665.72 417.38 C 664.05 415.00 660.80 414.15 658.11 415.07 Z" />
<path fill="rgba(0,0,0,0)" opacity="1.00" d=" M 518.34 405.34 C 520.86 403.85 525.10 405.70 524.13 409.07 C 524.29 412.86 518.73 413.58 517.00 410.74 C 516.38 408.93 516.55 406.43 518.34 405.34 Z" />
<path fill="rgba(0,0,0,0)" opacity="1.00" d=" M 575.24 409.78 C 575.90 409.84 577.22 409.96 577.88 410.03 C 580.07 412.89 581.72 416.24 582.69 419.72 C 578.38 418.26 577.30 413.32 575.24 409.78 Z" />
<path fill="rgba(0,0,0,0)" opacity="1.00" d=" M 562.82 415.12 C 561.60 412.73 563.85 410.70 565.31 409.12 C 565.28 411.23 565.47 413.33 565.89 415.40 C 566.07 414.58 566.41 412.92 566.58 412.09 C 567.26 412.24 568.62 412.54 569.30 412.69 C 567.62 414.48 565.45 416.63 562.82 415.12 Z" />
<path fill="rgba(0,0,0,0)" opacity="1.00" d=" M 824.46 420.44 C 832.93 416.25 844.10 418.53 850.22 425.75 C 859.94 437.13 861.15 455.16 852.48 467.48 C 844.09 479.82 824.18 482.01 813.57 471.35 C 812.07 469.64 809.21 470.85 809.21 473.04 C 809.37 475.26 811.31 476.68 812.64 478.26 C 808.12 486.80 802.29 494.60 795.71 501.66 C 790.68 507.34 784.67 512.09 779.85 517.95 C 774.21 525.01 772.72 534.24 772.00 542.99 C 771.49 551.22 771.67 559.52 773.09 567.66 C 765.86 566.23 759.16 569.90 752.13 570.73 C 740.49 572.25 728.66 570.19 717.60 566.52 C 713.45 565.12 709.28 563.77 705.05 562.66 C 707.98 553.97 708.78 544.71 708.12 535.59 C 716.00 536.74 724.01 537.64 731.98 537.02 C 733.51 536.89 736.16 535.94 735.50 533.95 C 735.39 531.72 732.76 531.50 731.06 531.59 C 711.79 532.23 692.51 527.46 675.47 518.56 C 657.08 509.33 641.21 494.48 632.14 475.89 C 626.91 465.56 624.58 454.13 623.29 442.71 C 626.19 449.84 631.09 456.25 637.62 460.39 C 648.86 467.35 663.98 467.25 675.18 460.26 C 684.93 454.16 690.82 443.06 691.38 431.67 C 695.32 431.37 699.28 431.36 703.24 431.24 C 703.55 440.27 706.49 449.47 712.79 456.12 C 720.34 464.57 731.83 468.90 743.04 468.78 C 754.51 469.01 766.46 464.93 774.21 456.21 C 781.04 448.78 783.69 438.26 782.81 428.36 C 789.53 427.92 796.27 427.67 802.97 426.95 C 806.64 426.12 809.37 430.43 813.09 429.05 C 817.89 427.67 820.04 422.48 824.46 420.44 M 818.45 431.03 C 818.66 432.68 819.50 435.36 821.73 434.48 C 826.52 432.72 832.20 432.33 836.58 435.37 C 845.06 440.62 846.70 453.74 839.96 461.03 C 835.93 465.90 828.40 467.29 822.92 464.14 C 820.81 463.16 819.22 461.16 816.90 460.71 C 814.80 461.08 814.47 463.72 815.97 464.97 C 823.47 473.13 838.65 472.20 844.81 462.85 C 851.13 454.05 849.91 440.51 841.71 433.31 C 835.44 427.78 825.66 426.76 818.45 431.03 M 693.31 447.49 C 686.53 455.63 694.16 470.89 704.99 469.39 C 707.23 469.53 709.05 466.30 706.91 464.97 C 703.81 463.59 699.90 463.24 697.87 460.15 C 695.79 456.69 696.93 452.49 697.02 448.72 C 696.86 446.91 694.56 446.55 693.31 447.49 M 702.07 484.11 C 697.78 485.02 693.85 482.81 690.06 481.19 C 687.49 481.21 686.51 485.04 688.82 486.25 C 694.28 490.46 702.47 491.05 708.38 487.44 C 710.92 485.72 713.63 483.16 713.41 479.83 C 713.04 478.22 711.24 477.95 710.03 477.29 C 707.81 479.96 705.87 483.58 702.07 484.11 Z" />
<path fill="rgba(0,0,0,0)" opacity="1.00" d=" M 245.20 425.16 C 247.28 424.19 250.27 424.21 251.45 426.52 C 253.56 429.65 249.67 434.38 246.21 432.73 C 243.21 431.65 242.15 426.74 245.20 425.16 Z" />
<path fill="rgba(0,0,0,0)" opacity="1.00" d=" M 564.21 427.29 C 566.34 426.65 569.20 426.32 570.79 428.26 C 573.04 430.48 573.33 433.91 572.60 436.85 C 570.04 437.28 568.50 434.57 566.87 433.06 C 565.72 431.32 563.16 429.61 564.21 427.29 Z" />
<path fill="rgba(0,0,0,0)" opacity="1.00" d=" M 602.38 431.35 C 604.10 429.83 606.71 430.07 608.07 431.95 C 608.64 434.07 608.54 437.29 605.84 437.77 C 602.13 438.90 599.37 433.90 602.38 431.35 Z" />
<path fill="rgba(0,0,0,0)" opacity="1.00" d=" M 400.32 462.40 C 403.02 460.28 407.75 462.27 407.18 465.98 C 407.38 469.04 403.77 471.22 401.14 469.74 C 398.32 468.46 398.34 464.41 400.32 462.40 Z" />
<path fill="rgba(0,0,0,0)" opacity="1.00" d=" M 509.55 475.60 C 512.05 474.18 515.71 475.83 515.62 478.92 C 515.49 481.20 513.53 483.33 511.12 482.83 C 507.97 482.28 506.65 477.22 509.55 475.60 Z" />
<path fill="rgba(0,0,0,0)" opacity="1.00" d=" M 817.68 481.19 C 827.61 485.53 839.47 484.33 848.75 478.93 C 853.31 488.04 857.54 497.36 863.00 505.98 C 867.84 513.58 874.62 520.24 883.11 523.58 C 888.92 526.02 895.33 526.66 901.59 526.30 C 901.79 576.46 901.73 626.61 902.28 676.76 C 890.98 657.18 878.11 638.54 864.26 620.68 C 858.55 613.48 852.80 606.05 845.08 600.87 C 839.01 596.77 832.51 593.35 826.21 589.63 C 811.09 581.47 796.06 572.52 779.19 568.47 C 777.07 559.15 776.97 549.50 777.93 540.03 C 778.50 534.63 779.52 529.11 782.36 524.40 C 784.49 520.95 787.45 518.13 790.38 515.38 C 801.03 505.35 810.72 494.12 817.68 481.19 M 814.84 559.03 C 815.36 559.74 816.40 561.15 816.92 561.86 C 827.42 555.12 837.60 547.88 848.00 541.00 C 850.32 539.33 853.27 538.10 854.41 535.29 C 853.78 534.90 852.50 534.13 851.86 533.74 C 839.35 541.90 826.79 550.05 814.84 559.03 M 837.57 559.62 C 834.81 561.63 831.54 563.23 829.74 566.26 C 830.35 566.73 831.57 567.66 832.18 568.13 C 838.23 563.83 844.47 559.71 850.07 554.83 C 849.55 554.25 848.50 553.10 847.97 552.52 C 844.15 554.35 841.12 557.36 837.57 559.62 M 850.53 567.09 C 851.20 568.09 851.92 569.09 852.66 570.08 C 856.43 567.45 860.29 564.92 863.83 561.99 C 864.22 560.56 862.96 559.78 862.15 558.90 C 858.12 561.40 854.15 564.02 850.53 567.09 Z" />
<path fill="rgba(0,0,0,0)" opacity="1.00" d=" M 389.89 502.06 C 394.07 502.17 397.14 505.27 400.17 507.77 C 407.61 514.34 414.95 521.05 421.98 528.06 C 431.00 536.85 439.61 546.32 445.67 557.43 C 447.58 560.90 448.97 564.67 449.32 568.64 C 443.40 574.39 438.39 581.02 432.21 586.53 C 425.57 584.44 419.21 581.56 413.20 578.05 C 415.64 575.97 416.98 573.02 417.15 569.85 C 419.73 569.93 422.12 569.00 422.31 566.09 C 418.64 563.74 414.38 562.61 410.58 560.53 C 403.05 556.52 395.64 551.92 389.91 545.50 C 395.57 542.59 401.66 545.58 407.45 546.30 C 410.67 546.60 414.53 547.87 417.14 545.26 C 411.37 535.46 404.09 526.66 397.79 517.22 C 394.71 512.44 391.11 507.71 389.89 502.06 Z" />
<path fill="rgba(0,0,0,0)" opacity="1.00" d=" M 235.74 551.11 C 237.25 544.20 239.48 537.47 241.75 530.78 C 256.19 530.55 270.64 530.77 285.08 530.59 C 287.57 537.19 290.01 543.81 291.88 550.61 C 285.25 550.72 278.62 550.48 271.99 550.80 C 270.58 547.06 267.52 543.11 263.05 543.56 C 258.80 543.52 255.79 547.11 254.76 550.92 C 248.42 550.90 242.07 550.76 235.74 551.11 Z" />
<path fill="rgba(0,0,0,0)" opacity="1.00" d=" M 385.10 532.15 C 389.42 529.84 394.61 531.64 399.17 532.28 C 403.35 532.95 405.26 537.18 407.52 540.24 C 400.37 539.47 392.33 536.82 385.91 541.42 C 384.64 538.59 383.41 535.06 385.10 532.15 Z" />
<path fill="rgba(0,0,0,0)" opacity="1.00" d=" M 331.31 532.32 C 333.52 531.03 337.07 532.08 337.19 534.94 C 337.90 537.95 334.43 541.00 331.65 539.26 C 328.83 538.26 328.73 533.65 331.31 532.32 Z" />
<path fill="rgba(0,0,0,0)" opacity="1.00" d=" M 554.39 539.48 C 557.51 537.68 561.37 541.44 559.56 544.60 C 558.53 547.90 552.99 547.32 552.45 544.01 C 552.18 542.34 552.74 540.22 554.39 539.48 Z" />
<path fill="rgba(0,0,0,0)" opacity="1.00" d=" M 260.36 549.26 C 262.70 547.22 267.27 548.65 267.14 551.99 C 267.41 554.93 263.86 557.29 261.33 555.64 C 258.78 554.54 259.55 551.27 260.36 549.26 Z" />
<path fill="rgba(0,0,0,0)" opacity="1.00" d=" M 386.61 555.46 C 384.78 553.68 383.98 551.20 384.16 548.69 C 389.62 553.72 395.21 558.68 401.64 562.46 C 405.01 564.75 408.91 566.27 412.02 568.93 C 411.53 570.42 410.86 571.85 410.21 573.29 C 401.59 568.47 393.38 562.70 386.61 555.46 Z" />
<path fill="rgba(0,0,0,0)" opacity="1.00" d=" M 271.97 554.72 C 278.65 553.90 285.48 554.48 292.21 554.24 C 292.78 563.77 289.44 573.73 282.04 580.00 C 277.89 583.92 272.37 585.84 266.87 586.91 C 266.75 577.91 266.57 568.91 266.82 559.91 C 269.15 558.84 270.68 556.85 271.97 554.72 Z" />
<path fill="rgba(0,0,0,0)" opacity="1.00" d=" M 235.33 554.93 C 241.72 554.84 248.12 554.87 254.51 554.82 C 256.35 557.85 259.20 560.12 262.68 560.98 C 262.67 569.74 262.86 578.50 262.67 587.25 C 254.41 586.43 246.20 582.52 241.24 575.73 C 236.85 569.77 235.27 562.21 235.33 554.93 Z" />
<path fill="rgba(0,0,0,0)" opacity="1.00" d=" M 603.17 560.17 C 605.10 559.34 607.99 559.84 608.60 562.14 C 609.35 564.34 607.71 567.71 605.03 567.31 C 601.48 567.31 599.97 561.70 603.17 560.17 Z" />
<path fill="rgba(0,0,0,0)" opacity="1.00" d=" M 388.19 565.63 C 393.82 570.03 399.96 573.75 405.59 578.14 C 403.85 579.34 401.59 579.58 399.92 578.12 C 395.37 574.65 391.12 570.59 388.19 565.63 Z" />
<path fill="rgba(0,0,0,0)" opacity="1.00" d=" M 665.29 573.97 C 677.66 571.09 690.18 566.52 703.07 568.18 C 711.84 569.77 719.90 574.08 728.78 575.31 C 725.05 585.56 718.80 595.54 709.19 601.16 C 703.46 604.52 696.05 604.03 690.56 600.41 C 680.04 593.92 672.82 583.51 665.29 573.97 Z" />
<path fill="rgba(0,0,0,0)" opacity="1.00" d=" M 757.86 575.50 C 762.53 574.45 767.16 572.35 772.06 572.99 C 782.82 574.03 792.63 578.96 802.44 583.16 C 796.22 590.97 788.74 598.17 779.65 602.50 C 768.38 607.63 753.72 607.29 744.14 598.82 C 737.81 593.35 736.14 584.58 736.00 576.61 C 743.28 576.97 750.72 577.33 757.86 575.50 Z" />
<path fill="rgba(0,0,0,0)" opacity="1.00" d=" M 542.99 633.18 C 578.04 607.49 617.87 588.60 659.35 575.92 C 667.70 586.06 675.45 597.14 686.48 604.60 C 693.69 609.57 703.59 610.76 711.41 606.49 C 720.17 601.78 726.80 593.60 730.88 584.64 C 732.20 591.87 735.34 599.07 741.18 603.79 C 751.56 612.38 766.55 613.46 778.94 609.04 C 790.82 604.85 800.07 595.72 807.98 586.23 C 816.51 590.98 825.16 595.51 833.56 600.50 C 838.28 603.32 843.29 605.84 847.18 609.81 C 855.28 617.80 862.00 627.03 868.82 636.10 C 882.35 654.66 894.85 674.02 905.52 694.37 C 914.66 712.53 922.50 731.68 925.37 751.93 C 927.41 767.12 926.27 783.27 919.10 797.06 C 913.99 807.42 905.10 815.55 894.92 820.79 C 893.42 821.59 891.66 821.35 890.05 821.46 C 853.47 821.53 816.90 821.28 780.33 821.60 C 780.45 804.03 780.42 786.45 780.42 768.88 C 802.20 765.21 823.70 759.96 844.97 754.06 C 847.87 753.87 848.97 749.77 846.14 748.57 C 842.94 748.31 839.92 749.74 836.85 750.39 C 834.02 721.93 828.69 693.79 823.10 665.77 C 822.58 663.94 821.98 660.73 819.39 661.44 C 816.45 662.22 817.64 665.85 817.86 668.02 C 823.28 695.84 828.84 723.72 831.23 752.00 C 807.44 758.02 783.42 763.15 759.13 766.71 C 746.52 768.80 733.78 769.97 721.15 771.79 C 712.91 767.73 703.71 766.24 694.59 766.31 C 690.22 749.15 685.73 732.02 681.42 714.84 C 680.84 712.92 680.32 710.47 678.14 709.78 C 676.10 709.42 674.47 710.76 672.95 711.87 C 664.08 718.46 654.97 724.73 646.27 731.56 C 644.36 725.66 643.57 719.42 641.26 713.66 C 640.22 711.17 637.03 711.72 635.40 713.25 C 621.06 724.20 606.88 735.38 592.56 746.36 C 594.31 725.06 597.29 703.85 601.39 682.88 C 604.24 668.92 607.75 655.04 612.97 641.76 C 615.38 635.86 617.91 629.90 621.74 624.75 C 623.08 622.94 624.39 621.10 625.48 619.13 C 625.08 618.50 624.30 617.23 623.90 616.59 C 622.04 616.80 620.11 617.29 619.01 618.94 C 612.12 627.56 608.15 638.06 604.61 648.40 C 599.59 663.06 596.28 678.24 593.66 693.49 C 575.95 699.42 557.71 704.70 538.99 705.85 C 522.84 703.80 508.27 695.36 495.49 685.66 C 480.01 674.05 467.00 659.64 454.29 645.17 C 463.26 638.27 471.11 630.03 478.63 621.61 C 484.32 614.95 490.33 608.41 494.62 600.70 C 507.52 611.55 522.36 619.71 536.77 628.32 C 539.36 629.44 539.62 634.22 542.99 633.18 M 787.93 665.24 C 787.39 668.44 787.76 671.70 787.73 674.94 C 788.05 690.39 787.85 705.88 788.79 721.31 C 789.66 721.30 791.38 721.29 792.25 721.28 C 792.60 716.52 792.14 711.75 792.12 707.00 C 791.76 693.71 791.87 680.42 791.45 667.14 C 791.80 665.16 789.45 663.81 787.93 665.24 M 770.78 674.88 C 770.14 678.88 770.39 682.94 770.41 686.97 C 770.70 706.01 770.96 725.04 771.46 744.07 C 771.44 746.07 771.79 748.05 772.38 749.97 C 773.34 749.71 774.30 749.41 775.25 749.06 C 775.64 744.37 775.07 739.66 775.15 734.96 C 774.56 715.62 774.60 696.25 774.23 676.91 C 774.49 674.81 772.04 675.24 770.78 674.88 M 803.97 691.83 C 804.06 695.61 804.83 699.33 805.92 702.94 C 807.33 702.54 810.04 702.16 809.02 699.92 C 808.70 696.99 807.98 694.12 807.21 691.29 C 806.40 691.43 804.78 691.70 803.97 691.83 Z" />
<path fill="rgba(0,0,0,0)" opacity="1.00" d=" M 326.80 609.29 C 349.57 609.35 372.34 609.12 395.11 609.25 C 395.18 627.66 395.13 646.07 395.14 664.49 C 372.39 664.54 349.64 664.78 326.90 664.45 C 326.68 646.07 326.82 627.68 326.80 609.29 M 341.30 620.61 C 341.71 621.91 341.02 624.61 343.05 624.76 C 347.68 625.49 352.37 624.54 357.03 624.53 C 364.38 624.00 371.98 624.39 379.06 622.10 C 379.39 621.58 380.06 620.55 380.40 620.03 C 378.64 619.64 376.88 619.23 375.08 619.26 C 365.36 619.39 355.64 619.20 345.93 619.46 C 344.31 619.47 342.80 620.07 341.30 620.61 M 345.09 636.36 C 342.34 636.62 342.16 640.50 344.88 641.06 C 350.98 641.20 357.03 639.91 363.10 639.42 C 370.63 638.51 378.27 638.22 385.70 636.58 C 385.70 635.99 385.70 634.81 385.70 634.21 C 372.16 634.43 358.52 634.49 345.09 636.36 Z" />
<path fill="rgba(0,0,0,0)" opacity="1.00" d=" M 241.03 656.28 C 258.07 655.57 275.11 654.93 292.15 654.25 C 292.16 660.79 292.53 667.34 292.40 673.88 C 275.38 674.16 258.36 674.06 241.35 674.09 C 241.30 668.15 241.20 662.21 241.03 656.28 M 253.41 664.18 C 253.40 665.22 253.41 666.26 253.43 667.32 C 259.32 667.37 265.23 667.36 271.12 666.89 C 272.66 666.61 275.96 666.87 274.55 664.38 C 267.58 663.41 260.41 663.62 253.41 664.18 Z" />
<path fill="rgba(0,0,0,0)" opacity="1.00" d=" M 211.52 659.45 C 213.30 657.51 216.19 658.01 218.54 657.72 C 218.74 663.23 218.78 668.75 218.71 674.26 C 216.00 674.24 213.18 674.45 210.65 673.28 C 208.98 672.60 207.19 673.66 205.50 673.80 C 206.19 668.62 207.92 663.34 211.52 659.45 Z" />
<path fill="rgba(0,0,0,0)" opacity="1.00" d=" M 421.24 658.30 C 423.01 657.01 425.76 656.90 427.15 658.82 C 429.28 661.09 427.00 665.41 423.97 665.12 C 420.78 665.07 419.32 660.64 421.24 658.30 Z" />
<path fill="rgba(0,0,0,0)" opacity="1.00" d=" M 210.70 678.45 C 213.38 678.03 216.08 677.75 218.79 677.56 C 218.77 684.50 218.89 691.45 218.86 698.39 C 215.24 698.48 211.55 698.25 208.16 696.84 C 207.48 697.49 206.13 698.78 205.45 699.42 C 205.91 692.26 206.56 684.56 210.70 678.45 Z" />
<path fill="rgba(0,0,0,0)" opacity="1.00" d=" M 208.81 704.86 C 210.77 701.16 215.37 701.60 218.90 701.26 C 218.82 707.90 219.34 714.54 218.85 721.18 C 214.64 720.20 210.35 719.48 206.04 720.26 C 206.57 715.11 206.46 709.58 208.81 704.86 Z" />
<path fill="rgba(0,0,0,0)" opacity="1.00" d=" M 648.98 736.92 C 658.02 730.47 666.91 723.80 676.04 717.47 C 680.26 733.82 684.43 750.20 688.85 766.50 C 672.77 767.87 656.38 770.01 641.51 776.62 C 639.16 766.81 636.37 757.12 634.01 747.32 C 639.43 744.50 644.01 740.42 648.98 736.92 Z" />
<path fill="rgba(0,0,0,0)" opacity="1.00" d=" M 603.59 745.85 C 614.59 736.77 626.33 728.62 637.27 719.47 C 638.64 724.64 639.93 729.83 641.29 735.00 C 636.42 738.12 632.19 743.17 626.04 743.46 C 618.55 744.18 611.07 745.03 603.59 745.85 Z" />
<path fill="rgba(0,0,0,0)" opacity="1.00" d=" M 209.10 727.05 C 210.75 723.13 215.79 724.73 219.10 724.22 C 219.09 730.02 219.08 735.82 219.06 741.63 C 215.14 741.82 211.29 742.56 207.38 742.76 C 206.99 737.50 207.44 732.07 209.10 727.05 Z" />
<path fill="rgba(0,0,0,0)" opacity="1.00" d=" M 590.81 764.40 C 597.00 783.52 602.90 802.73 609.51 821.71 C 602.82 821.44 596.13 821.69 589.45 821.62 C 588.95 802.54 589.56 783.44 590.81 764.40 Z" />
<path fill="rgba(0,0,0,0)" opacity="1.00" d=" M 672.98 774.06 C 687.76 771.70 703.72 770.31 717.82 776.37 C 715.49 789.13 716.01 802.19 714.82 815.08 C 714.31 818.47 717.48 820.42 720.05 821.77 C 699.25 821.04 678.42 821.96 657.62 821.48 C 657.53 820.92 657.34 819.80 657.25 819.24 C 664.98 819.00 672.88 818.17 680.02 815.00 C 681.47 814.37 682.52 813.15 683.64 812.10 C 682.82 810.16 681.32 808.11 678.94 809.25 C 670.34 812.29 660.93 814.98 651.85 812.40 C 648.63 811.36 644.40 809.76 644.60 805.65 C 655.64 807.51 667.23 806.94 677.63 802.57 C 678.83 801.99 679.71 800.95 680.70 800.08 C 679.73 798.82 679.05 796.53 677.02 796.95 C 673.28 797.56 669.83 799.32 666.09 799.95 C 657.60 801.51 647.89 801.62 640.84 795.89 C 641.36 794.50 641.93 793.14 642.54 791.80 C 649.54 794.72 657.36 793.94 664.60 792.42 C 667.96 791.50 671.70 790.72 674.20 788.11 C 674.76 785.79 671.85 784.42 669.97 785.20 C 661.32 787.00 651.71 790.04 643.32 785.65 C 641.71 785.21 641.69 782.81 643.31 782.37 C 652.37 777.24 662.94 776.09 672.98 774.06 Z" />
<path fill="rgba(0,0,0,0)" opacity="1.00" d=" M 219.42 804.13 C 270.61 804.61 321.81 804.64 372.99 805.21 C 443.19 805.78 513.39 805.84 583.58 805.89 C 583.58 811.09 583.56 816.29 583.86 821.48 C 462.27 821.46 340.67 821.38 219.08 821.59 C 219.19 815.77 219.26 809.95 219.42 804.13 Z" />
<path fill="rgba(0,0,0,0)" opacity="1.00" d=" M 0.00 832.82 C 341.33 832.89 682.67 832.80 1024.00 832.84 L 1024.00 1024.00 L 0.00 1024.00 L 0.00 832.82 Z" />
</g>
<g id="Group-000000" fill="#151617">
<path fill="#151617" opacity="1.00" d=" M 421.98 210.84 C 477.00 210.79 532.01 210.43 587.03 210.46 C 691.34 210.57 795.66 209.61 899.96 211.76 C 904.88 212.00 909.87 211.43 914.75 212.22 C 917.64 213.02 918.76 216.23 918.56 218.97 C 918.50 289.43 918.33 359.90 918.32 430.37 C 927.33 435.13 934.61 442.96 938.82 452.22 C 944.56 464.96 945.41 479.78 941.45 493.15 C 937.90 505.27 929.33 515.86 918.12 521.71 C 917.89 582.84 917.72 643.98 917.74 705.11 C 918.75 711.35 922.36 716.87 924.00 722.98 C 931.77 745.26 935.53 770.34 927.14 793.01 C 923.02 804.59 915.11 814.62 905.04 821.62 C 944.69 821.36 984.35 821.64 1024.00 821.41 L 1024.00 832.84 C 682.67 832.80 341.33 832.89 0.00 832.82 L 0.00 821.55 C 55.72 821.45 111.44 821.40 167.16 821.51 C 167.13 815.57 167.18 809.63 167.24 803.70 C 154.46 803.87 141.67 803.54 128.88 803.73 C 126.66 803.92 123.92 803.19 123.34 800.73 C 122.73 796.19 123.25 791.59 123.14 787.03 C 123.02 734.71 123.23 682.38 122.90 630.06 C 122.64 492.68 122.69 355.30 121.74 217.92 C 121.54 214.97 124.01 212.09 127.04 212.22 C 139.02 212.03 151.01 212.27 162.99 211.90 C 249.32 211.62 335.66 211.54 421.98 210.84 M 139.61 228.90 C 139.73 370.29 139.48 511.67 139.25 653.06 C 139.10 698.00 139.58 742.96 138.63 787.89 C 187.08 787.83 235.52 788.33 283.96 788.39 C 383.93 788.78 483.90 788.75 583.86 788.69 C 584.99 758.91 588.18 729.24 592.47 699.76 C 575.22 705.71 557.30 710.38 539.03 711.48 C 527.79 710.56 517.19 705.97 507.44 700.52 C 488.95 689.72 473.20 674.86 459.00 658.96 C 448.16 646.75 437.92 634.02 428.12 620.96 C 424.73 616.24 421.07 611.66 418.31 606.53 C 417.46 604.71 416.42 602.42 417.65 600.52 C 419.87 596.64 423.34 593.71 426.95 591.18 C 420.80 589.32 415.05 586.31 409.64 582.89 C 406.71 585.40 402.51 585.60 399.17 583.83 C 392.56 580.37 387.21 574.77 383.43 568.39 C 381.58 565.27 380.77 561.61 381.31 558.01 C 379.71 555.24 377.97 552.29 378.22 548.96 C 378.29 546.81 379.89 545.14 380.43 543.14 C 378.47 538.47 377.57 532.41 381.42 528.42 C 385.56 524.14 392.05 525.86 397.23 526.48 C 392.92 520.08 387.95 513.89 385.39 506.52 C 384.19 503.23 384.51 498.64 388.13 497.05 C 392.80 495.27 397.26 498.57 400.85 501.21 C 409.85 508.43 418.17 516.47 426.44 524.52 C 438.08 536.16 449.54 548.89 455.06 564.70 C 459.04 564.46 461.75 567.46 464.64 569.68 C 464.33 563.81 464.20 557.93 464.20 552.05 C 464.16 528.42 463.19 504.80 463.17 481.18 C 476.50 480.42 489.90 480.93 503.25 480.93 C 503.28 477.83 503.83 474.37 506.52 472.40 C 510.47 468.94 517.37 470.59 519.34 475.46 C 521.98 480.25 518.33 486.69 513.04 487.36 C 509.94 488.04 507.20 486.16 504.79 484.52 C 492.08 484.70 479.35 484.48 466.64 484.68 C 467.32 513.98 467.78 543.29 468.20 572.59 C 481.93 584.72 496.51 595.87 511.57 606.29 C 521.70 613.53 532.99 618.95 543.23 626.00 C 549.96 621.04 556.97 616.48 564.05 612.05 C 596.81 592.30 632.33 577.04 669.30 567.16 C 679.05 564.54 689.00 562.15 699.16 562.16 C 702.66 553.38 703.39 543.76 702.49 534.42 C 683.82 530.33 666.17 521.65 651.46 509.45 C 637.35 497.39 626.35 481.39 621.40 463.41 C 615.70 443.95 617.25 423.15 621.91 403.65 C 614.22 400.78 610.16 393.12 606.96 386.09 C 599.59 369.10 599.62 349.58 604.52 331.92 C 609.28 314.62 620.01 299.01 634.75 288.71 C 649.18 278.70 665.77 271.87 682.96 268.37 C 685.02 267.88 686.87 266.78 688.74 265.82 C 710.04 254.94 734.08 249.35 758.01 250.18 C 792.78 250.96 825.95 266.48 851.89 289.10 C 863.80 299.75 873.68 313.18 878.17 328.67 C 882.09 341.69 881.52 356.25 875.55 368.56 C 873.92 371.45 874.81 374.84 874.48 377.98 C 873.39 395.08 867.95 412.22 857.41 425.89 C 858.13 427.10 858.86 428.31 859.60 429.53 C 870.38 418.61 887.63 418.03 901.48 422.56 C 901.14 408.70 901.33 394.84 901.20 380.99 C 901.10 329.89 900.62 278.79 900.72 227.69 C 870.81 227.38 840.90 227.29 810.99 227.24 C 703.66 227.16 596.33 227.21 489.00 227.34 C 372.53 227.43 256.08 228.25 139.61 228.90 M 709.61 315.86 C 703.41 329.95 693.50 341.95 682.86 352.91 C 668.49 367.41 652.41 380.13 635.54 391.59 C 633.46 393.13 630.53 394.20 629.89 397.00 C 628.05 402.65 626.32 408.37 625.20 414.22 C 627.41 411.44 629.13 408.26 631.74 405.80 C 641.92 395.67 658.45 392.62 671.50 398.72 C 682.26 403.58 689.83 414.50 691.00 426.20 C 695.21 426.08 699.43 425.79 703.65 425.75 C 704.85 419.71 706.85 413.65 710.75 408.78 C 715.99 401.85 724.06 397.48 732.46 395.67 C 745.36 392.68 760.02 394.98 770.27 403.74 C 776.20 408.59 780.20 415.50 781.97 422.92 C 788.60 422.46 795.23 421.90 801.88 421.73 C 796.91 410.98 795.37 399.03 795.90 387.29 C 773.09 383.73 751.11 373.62 734.22 357.78 C 722.34 346.52 712.51 332.23 709.61 315.86 M 736.53 400.72 C 728.16 402.03 720.01 406.13 714.81 412.94 C 708.10 421.98 707.22 434.71 711.95 444.84 C 715.73 452.94 723.34 458.89 731.85 461.41 C 745.71 465.64 763.10 462.19 771.77 449.84 C 780.76 437.56 778.61 418.88 767.47 408.66 C 759.06 401.53 747.31 398.81 736.53 400.72 M 651.55 401.78 C 642.18 403.61 633.54 409.86 629.75 418.75 C 624.06 431.23 628.25 447.59 639.96 455.07 C 653.01 464.18 673.00 459.83 681.18 446.20 C 688.23 435.19 686.62 419.73 677.76 410.20 C 671.30 403.06 660.96 399.76 651.55 401.78 M 824.46 420.44 C 820.04 422.48 817.89 427.67 813.09 429.05 C 809.37 430.43 806.64 426.12 802.97 426.95 C 796.27 427.67 789.53 427.92 782.81 428.36 C 783.69 438.26 781.04 448.78 774.21 456.21 C 766.46 464.93 754.51 469.01 743.04 468.78 C 731.83 468.90 720.34 464.57 712.79 456.12 C 706.49 449.47 703.55 440.27 703.24 431.24 C 699.28 431.36 695.32 431.37 691.38 431.67 C 690.82 443.06 684.93 454.16 675.18 460.26 C 663.98 467.25 648.86 467.35 637.62 460.39 C 631.09 456.25 626.19 449.84 623.29 442.71 C 624.58 454.13 626.91 465.56 632.14 475.89 C 641.21 494.48 657.08 509.33 675.47 518.56 C 692.51 527.46 711.79 532.23 731.06 531.59 C 732.76 531.50 735.39 531.72 735.50 533.95 C 736.16 535.94 733.51 536.89 731.98 537.02 C 724.01 537.64 716.00 536.74 708.12 535.59 C 708.78 544.71 707.98 553.97 705.05 562.66 C 709.28 563.77 713.45 565.12 717.60 566.52 C 728.66 570.19 740.49 572.25 752.13 570.73 C 759.16 569.90 765.86 566.23 773.09 567.66 C 771.67 559.52 771.49 551.22 772.00 542.99 C 772.72 534.24 774.21 525.01 779.85 517.95 C 784.67 512.09 790.68 507.34 795.71 501.66 C 802.29 494.60 808.12 486.80 812.64 478.26 C 811.31 476.68 809.37 475.26 809.21 473.04 C 809.21 470.85 812.07 469.64 813.57 471.35 C 824.18 482.01 844.09 479.82 852.48 467.48 C 861.15 455.16 859.94 437.13 850.22 425.75 C 844.10 418.53 832.93 416.25 824.46 420.44 M 509.55 475.60 C 506.65 477.22 507.97 482.28 511.12 482.83 C 513.53 483.33 515.49 481.20 515.62 478.92 C 515.71 475.83 512.05 474.18 509.55 475.60 M 817.68 481.19 C 810.72 494.12 801.03 505.35 790.38 515.38 C 787.45 518.13 784.49 520.95 782.36 524.40 C 779.52 529.11 778.50 534.63 777.93 540.03 C 776.97 549.50 777.07 559.15 779.19 568.47 C 796.06 572.52 811.09 581.47 826.21 589.63 C 832.51 593.35 839.01 596.77 845.08 600.87 C 852.80 606.05 858.55 613.48 864.26 620.68 C 878.11 638.54 890.98 657.18 902.28 676.76 C 901.73 626.61 901.79 576.46 901.59 526.30 C 895.33 526.66 888.92 526.02 883.11 523.58 C 874.62 520.24 867.84 513.58 863.00 505.98 C 857.54 497.36 853.31 488.04 848.75 478.93 C 839.47 484.33 827.61 485.53 817.68 481.19 M 389.89 502.06 C 391.11 507.71 394.71 512.44 397.79 517.22 C 404.09 526.66 411.37 535.46 417.14 545.26 C 414.53 547.87 410.67 546.60 407.45 546.30 C 401.66 545.58 395.57 542.59 389.91 545.50 C 395.64 551.92 403.05 556.52 410.58 560.53 C 414.38 562.61 418.64 563.74 422.31 566.09 C 422.12 569.00 419.73 569.93 417.15 569.85 C 416.98 573.02 415.64 575.97 413.20 578.05 C 419.21 581.56 425.57 584.44 432.21 586.53 C 438.39 581.02 443.40 574.39 449.32 568.64 C 448.97 564.67 447.58 560.90 445.67 557.43 C 439.61 546.32 431.00 536.85 421.98 528.06 C 414.95 521.05 407.61 514.34 400.17 507.77 C 397.14 505.27 394.07 502.17 389.89 502.06 M 385.10 532.15 C 383.41 535.06 384.64 538.59 385.91 541.42 C 392.33 536.82 400.37 539.47 407.52 540.24 C 405.26 537.18 403.35 532.95 399.17 532.28 C 394.61 531.64 389.42 529.84 385.10 532.15 M 386.61 555.46 C 393.38 562.70 401.59 568.47 410.21 573.29 C 410.86 571.85 411.53 570.42 412.02 568.93 C 408.91 566.27 405.01 564.75 401.64 562.46 C 395.21 558.68 389.62 553.72 384.16 548.69 C 383.98 551.20 384.78 553.68 386.61 555.46 M 388.19 565.63 C 391.12 570.59 395.37 574.65 399.92 578.12 C 401.59 579.58 403.85 579.34 405.59 578.14 C 399.96 573.75 393.82 570.03 388.19 565.63 M 665.29 573.97 C 672.82 583.51 680.04 593.92 690.56 600.41 C 696.05 604.03 703.46 604.52 709.19 601.16 C 718.80 595.54 725.05 585.56 728.78 575.31 C 719.90 574.08 711.84 569.77 703.07 568.18 C 690.18 566.52 677.66 571.09 665.29 573.97 M 757.86 575.50 C 750.72 577.33 743.28 576.97 736.00 576.61 C 736.14 584.58 737.81 593.35 744.14 598.82 C 753.72 607.29 768.38 607.63 779.65 602.50 C 788.74 598.17 796.22 590.97 802.44 583.16 C 792.63 578.96 782.82 574.03 772.06 572.99 C 767.16 572.35 762.53 574.45 757.86 575.50 M 542.99 633.18 C 539.62 634.22 539.36 629.44 536.77 628.32 C 522.36 619.71 507.52 611.55 494.62 600.70 C 490.33 608.41 484.32 614.95 478.63 621.61 C 471.11 630.03 463.26 638.27 454.29 645.17 C 467.00 659.64 480.01 674.05 495.49 685.66 C 508.27 695.36 522.84 703.80 538.99 705.85 C 557.71 704.70 575.95 699.42 593.66 693.49 C 596.28 678.24 599.59 663.06 604.61 648.40 C 608.15 638.06 612.12 627.56 619.01 618.94 C 620.11 617.29 622.04 616.80 623.90 616.59 C 624.30 617.23 625.08 618.50 625.48 619.13 C 624.39 621.10 623.08 622.94 621.74 624.75 C 617.91 629.90 615.38 635.86 612.97 641.76 C 607.75 655.04 604.24 668.92 601.39 682.88 C 597.29 703.85 594.31 725.06 592.56 746.36 C 606.88 735.38 621.06 724.20 635.40 713.25 C 637.03 711.72 640.22 711.17 641.26 713.66 C 643.57 719.42 644.36 725.66 646.27 731.56 C 654.97 724.73 664.08 718.46 672.95 711.87 C 674.47 710.76 676.10 709.42 678.14 709.78 C 680.32 710.47 680.84 712.92 681.42 714.84 C 685.73 732.02 690.22 749.15 694.59 766.31 C 703.71 766.24 712.91 767.73 721.15 771.79 C 733.78 769.97 746.52 768.80 759.13 766.71 C 783.42 763.15 807.44 758.02 831.23 752.00 C 828.84 723.72 823.28 695.84 817.86 668.02 C 817.64 665.85 816.45 662.22 819.39 661.44 C 821.98 660.73 822.58 663.94 823.10 665.77 C 828.69 693.79 834.02 721.93 836.85 750.39 C 839.92 749.74 842.94 748.31 846.14 748.57 C 848.97 749.77 847.87 753.87 844.97 754.06 C 823.70 759.96 802.20 765.21 780.42 768.88 C 780.42 786.45 780.45 804.03 780.33 821.60 C 816.90 821.28 853.47 821.53 890.05 821.46 C 891.66 821.35 893.42 821.59 894.92 820.79 C 905.10 815.55 913.99 807.42 919.10 797.06 C 926.27 783.27 927.41 767.12 925.37 751.93 C 922.50 731.68 914.66 712.53 905.52 694.37 C 894.85 674.02 882.35 654.66 868.82 636.10 C 862.00 627.03 855.28 617.80 847.18 609.81 C 843.29 605.84 838.28 603.32 833.56 600.50 C 825.16 595.51 816.51 590.98 807.98 586.23 C 800.07 595.72 790.82 604.85 778.94 609.04 C 766.55 613.46 751.56 612.38 741.18 603.79 C 735.34 599.07 732.20 591.87 730.88 584.64 C 726.80 593.60 720.17 601.78 711.41 606.49 C 703.59 610.76 693.69 609.57 686.48 604.60 C 675.45 597.14 667.70 586.06 659.35 575.92 C 617.87 588.60 578.04 607.49 542.99 633.18 M 648.98 736.92 C 644.01 740.42 639.43 744.50 634.01 747.32 C 636.37 757.12 639.16 766.81 641.51 776.62 C 656.38 770.01 672.77 767.87 688.85 766.50 C 684.43 750.20 680.26 733.82 676.04 717.47 C 666.91 723.80 658.02 730.47 648.98 736.92 M 603.59 745.85 C 611.07 745.03 618.55 744.18 626.04 743.46 C 632.19 743.17 636.42 738.12 641.29 735.00 C 639.93 729.83 638.64 724.64 637.27 719.47 C 626.33 728.62 614.59 736.77 603.59 745.85 M 590.81 764.40 C 589.56 783.44 588.95 802.54 589.45 821.62 C 596.13 821.69 602.82 821.44 609.51 821.71 C 602.90 802.73 597.00 783.52 590.81 764.40 M 672.98 774.06 C 662.94 776.09 652.37 777.24 643.31 782.37 C 641.69 782.81 641.71 785.21 643.32 785.65 C 651.71 790.04 661.32 787.00 669.97 785.20 C 671.85 784.42 674.76 785.79 674.20 788.11 C 671.70 790.72 667.96 791.50 664.60 792.42 C 657.36 793.94 649.54 794.72 642.54 791.80 C 641.93 793.14 641.36 794.50 640.84 795.89 C 647.89 801.62 657.60 801.51 666.09 799.95 C 669.83 799.32 673.28 797.56 677.02 796.95 C 679.05 796.53 679.73 798.82 680.70 800.08 C 679.71 800.95 678.83 801.99 677.63 802.57 C 667.23 806.94 655.64 807.51 644.60 805.65 C 644.40 809.76 648.63 811.36 651.85 812.40 C 660.93 814.98 670.34 812.29 678.94 809.25 C 681.32 808.11 682.82 810.16 683.64 812.10 C 682.52 813.15 681.47 814.37 680.02 815.00 C 672.88 818.17 664.98 819.00 657.25 819.24 C 657.34 819.80 657.53 820.92 657.62 821.48 C 678.42 821.96 699.25 821.04 720.05 821.77 C 717.48 820.42 714.31 818.47 714.82 815.08 C 716.01 802.19 715.49 789.13 717.82 776.37 C 703.72 770.31 687.76 771.70 672.98 774.06 M 219.42 804.13 C 219.26 809.95 219.19 815.77 219.08 821.59 C 340.67 821.38 462.27 821.46 583.86 821.48 C 583.56 816.29 583.58 811.09 583.58 805.89 C 513.39 805.84 443.19 805.78 372.99 805.21 C 321.81 804.64 270.61 804.61 219.42 804.13 Z" />
<path fill="#151617" opacity="1.00" d=" M 406.18 265.26 C 409.97 264.59 414.78 263.09 417.98 266.05 C 418.93 267.86 416.88 269.94 415.00 269.54 C 399.49 268.77 386.60 282.45 383.84 296.93 C 382.65 301.79 384.26 306.78 386.99 310.82 C 393.68 321.31 406.65 328.09 419.13 325.71 C 425.15 324.73 430.30 321.31 435.16 317.84 C 437.42 316.26 439.88 320.01 437.80 321.64 C 426.14 333.49 405.75 334.31 392.66 324.29 C 385.11 318.46 378.08 310.04 378.32 299.97 C 379.23 284.21 390.78 269.31 406.18 265.26 Z" />
<path fill="#151617" opacity="1.00" d=" M 247.51 283.58 C 257.01 274.72 273.92 274.31 282.75 284.33 C 285.89 287.49 285.40 292.26 285.78 296.33 C 288.91 296.29 292.03 295.81 295.17 295.95 C 297.79 296.00 297.95 298.97 298.59 300.84 C 315.74 300.07 332.91 299.37 350.06 298.54 C 352.57 298.25 354.91 300.39 354.59 302.94 C 354.49 334.38 353.89 365.81 353.58 397.25 C 374.49 396.97 395.40 396.28 416.29 395.44 C 416.18 381.29 416.24 367.13 415.88 352.99 C 415.77 350.80 416.04 347.50 418.97 347.50 C 442.31 346.69 465.69 346.43 489.03 345.59 C 491.11 345.22 493.42 346.72 493.32 348.98 C 493.55 362.07 493.38 375.18 493.70 388.28 C 503.59 387.41 513.47 386.26 523.39 385.63 C 523.74 390.48 523.46 395.35 523.52 400.22 C 527.07 402.46 530.32 406.53 528.85 410.97 C 527.40 416.50 519.97 419.25 515.43 415.64 C 511.24 412.91 510.71 406.55 514.01 402.94 C 515.45 401.16 517.74 400.59 519.79 399.83 C 519.79 396.39 519.84 392.96 519.93 389.53 C 511.16 390.24 502.36 390.68 493.65 391.96 C 493.70 405.99 493.93 420.01 493.91 434.04 C 494.09 435.82 492.64 437.46 490.90 437.67 C 468.60 438.49 446.28 438.83 423.98 439.72 C 422.01 439.66 419.87 440.12 418.06 439.15 C 416.31 437.63 416.51 435.12 416.47 433.03 C 416.60 421.72 416.36 410.40 416.30 399.09 C 395.39 399.60 374.49 400.66 353.57 400.82 C 353.46 419.94 353.12 439.06 352.72 458.17 C 352.91 460.74 350.76 463.06 348.16 462.91 C 300.44 464.55 252.71 465.99 204.99 467.70 C 201.42 467.80 200.39 463.78 200.58 460.94 C 200.42 409.95 200.65 358.97 200.71 307.98 C 200.37 305.52 202.39 303.38 204.84 303.52 C 213.92 303.20 222.99 302.82 232.07 302.66 C 232.24 300.82 232.43 298.98 232.66 297.15 C 236.40 296.27 240.25 296.57 244.06 296.51 C 243.78 291.99 244.09 286.96 247.51 283.58 M 250.63 287.82 C 247.55 291.44 250.16 296.80 247.65 300.59 C 244.44 302.31 240.62 301.47 237.14 301.69 C 237.28 310.22 237.80 318.73 238.17 327.25 C 256.84 326.95 275.49 325.95 294.14 325.16 C 293.85 317.12 293.84 309.08 293.64 301.05 C 289.90 301.00 285.80 302.19 282.34 300.37 C 279.12 296.57 282.12 290.32 278.22 286.79 C 270.76 279.58 257.66 280.44 250.63 287.82 M 298.72 305.67 C 298.79 311.40 298.68 317.13 299.15 322.85 C 301.61 323.30 304.25 323.36 306.52 324.55 C 308.24 325.47 308.05 328.65 305.95 328.94 C 302.75 329.97 299.32 329.79 296.02 330.09 C 275.01 331.02 254.00 331.84 232.99 332.65 C 230.29 333.01 227.10 331.07 227.54 328.05 C 227.61 324.74 230.73 323.06 232.69 320.88 C 232.89 316.46 232.49 312.03 232.24 307.61 C 223.36 307.76 214.49 308.18 205.62 308.55 C 205.40 328.04 205.46 347.53 205.40 367.02 C 205.54 398.95 205.01 430.88 205.65 462.81 C 253.01 460.94 300.39 459.66 347.74 457.79 C 348.66 436.54 348.39 415.25 348.77 393.99 C 349.18 363.88 349.58 333.78 349.76 303.67 C 332.74 304.16 315.74 305.24 298.72 305.67 M 421.57 353.24 C 421.91 380.14 422.14 407.03 422.45 433.93 C 444.36 433.27 466.27 432.61 488.17 431.84 C 488.14 405.07 487.59 378.30 487.69 351.52 C 465.65 352.20 443.61 352.76 421.57 353.24 M 518.34 405.34 C 516.55 406.43 516.38 408.93 517.00 410.74 C 518.73 413.58 524.29 412.86 524.13 409.07 C 525.10 405.70 520.86 403.85 518.34 405.34 Z" />
<path fill="#151617" opacity="1.00" d=" M 413.67 283.63 C 417.63 280.63 423.77 281.35 426.75 285.38 C 429.16 288.86 428.63 293.39 427.97 297.33 C 431.42 299.38 435.71 302.46 435.08 307.04 C 432.99 312.03 426.86 314.28 421.82 312.86 C 422.06 311.56 421.42 309.53 423.06 308.95 C 425.30 307.86 427.87 307.73 430.14 306.69 C 430.61 304.25 427.63 302.81 425.94 301.61 C 421.94 305.06 419.99 310.49 415.40 313.36 C 412.11 315.51 407.34 316.74 403.96 314.12 C 400.06 311.12 399.13 305.58 400.62 301.09 C 402.81 294.03 407.68 287.88 413.67 283.63 M 410.27 293.38 C 407.36 297.27 403.98 301.77 404.67 306.91 C 404.91 309.72 407.98 311.60 410.59 310.48 C 415.11 308.61 417.57 303.98 419.92 299.96 C 418.33 298.20 415.10 295.85 417.31 293.29 C 419.87 292.22 421.92 294.56 423.99 295.65 C 424.63 292.16 424.41 287.01 419.88 286.50 C 415.72 286.93 412.92 290.52 410.27 293.38 Z" />
<path fill="#151617" opacity="1.00" d=" M 578.60 285.59 C 582.90 282.81 589.30 285.19 590.62 290.16 C 592.84 295.22 588.50 301.42 583.05 301.24 C 579.97 301.41 577.54 299.26 575.39 297.38 C 560.38 303.07 544.00 305.36 528.00 303.98 C 525.95 303.81 522.10 303.51 523.92 300.37 C 526.58 299.85 529.26 300.53 531.93 300.65 C 546.40 301.44 560.83 298.57 574.50 293.96 C 574.86 290.85 575.46 287.12 578.60 285.59 M 580.49 289.63 C 578.11 291.36 579.17 295.96 582.03 296.61 C 584.61 297.42 587.36 294.52 586.51 291.99 C 586.09 289.34 582.59 288.56 580.49 289.63 Z" />
<path fill="#151617" opacity="1.00" d=" M 482.53 286.75 C 489.22 285.62 496.17 285.20 502.87 286.41 C 505.14 286.94 504.52 290.61 502.01 289.79 C 485.67 287.72 468.29 292.53 455.95 303.58 C 453.81 303.08 453.47 300.45 455.26 299.31 C 462.85 292.59 472.63 288.59 482.53 286.75 Z" />
<path fill="#151617" opacity="1.00" d=" M 481.19 316.12 C 482.68 311.06 489.48 309.03 493.58 312.26 C 496.50 314.12 497.10 317.72 497.53 320.87 C 502.73 324.16 508.45 326.69 513.21 330.65 C 512.63 331.51 512.05 332.37 511.47 333.23 C 506.38 330.02 501.12 327.10 496.10 323.80 C 494.07 325.51 491.84 327.36 489.02 327.29 C 483.38 327.82 478.68 321.30 481.19 316.12 M 488.14 322.94 C 490.73 323.53 492.05 320.93 493.03 319.05 C 492.30 316.94 490.69 314.63 488.13 315.30 C 484.18 315.69 484.38 322.32 488.14 322.94 Z" />
<path fill="#151617" opacity="1.00" d=" M 293.54 340.50 C 297.85 334.92 307.26 334.97 311.75 340.32 C 315.76 345.05 314.87 353.08 309.86 356.79 C 307.73 358.56 305.04 359.35 302.39 359.96 C 301.69 368.58 303.75 377.04 305.27 385.47 C 305.69 386.62 305.48 388.41 306.85 388.95 C 316.21 393.25 325.87 397.10 334.65 402.53 C 336.84 403.51 335.19 406.91 333.14 405.73 C 323.06 400.33 312.75 395.21 301.94 391.44 C 296.75 391.58 292.01 394.13 287.60 396.65 C 285.86 397.49 284.34 399.54 282.21 398.67 C 281.51 397.43 281.51 395.75 282.93 395.04 C 285.49 393.12 288.38 391.73 291.13 390.12 C 293.85 380.43 299.20 371.25 298.90 360.92 C 299.28 359.19 297.51 358.47 296.50 357.51 C 291.39 353.72 289.64 345.75 293.54 340.50 M 300.22 341.01 C 297.97 341.74 295.71 343.50 295.59 346.05 C 294.99 350.38 298.41 355.41 303.04 355.35 C 308.14 355.25 311.87 348.93 309.33 344.44 C 307.81 341.07 303.58 339.61 300.22 341.01 M 299.87 376.59 C 298.28 380.47 296.91 384.45 295.30 388.33 C 297.49 388.11 299.69 387.96 301.89 387.81 C 301.17 384.07 300.55 380.32 299.87 376.59 Z" />
<path fill="#151617" opacity="1.00" d=" M 251.91 343.76 C 260.47 339.51 271.80 346.74 272.46 356.08 C 273.39 362.70 268.92 370.13 261.90 370.75 C 262.10 377.21 263.46 383.55 264.55 389.90 C 265.43 393.76 266.22 397.90 268.92 400.97 C 276.99 409.54 288.08 414.04 298.16 419.65 C 297.61 420.57 297.07 421.50 296.48 422.41 C 288.13 418.86 279.90 414.80 272.61 409.34 C 268.41 406.11 264.45 402.29 262.28 397.36 C 256.66 399.14 251.04 400.91 245.40 402.64 C 237.59 405.09 230.05 408.44 222.01 410.09 C 221.71 409.08 221.43 408.08 221.16 407.08 C 231.25 403.17 241.60 399.93 251.91 396.63 C 256.11 388.80 259.29 380.10 258.26 371.07 C 253.48 370.27 249.11 367.43 246.91 363.04 C 243.38 356.70 245.07 347.14 251.91 343.76 M 254.29 347.05 C 246.49 350.65 248.07 363.42 255.88 366.07 C 261.04 368.66 268.44 365.00 268.42 358.93 C 269.56 351.58 261.31 344.34 254.29 347.05 M 256.56 395.18 C 258.22 394.88 259.89 394.59 261.55 394.30 C 261.07 391.76 260.65 389.20 260.02 386.70 C 258.80 389.50 257.79 392.38 256.56 395.18 Z" />
<path fill="#151617" opacity="1.00" d=" M 326.34 361.31 C 327.13 359.65 329.05 360.84 330.35 360.89 C 329.26 364.86 326.42 367.98 324.75 371.68 C 322.36 376.09 321.62 381.09 320.64 385.93 C 319.93 385.85 318.52 385.69 317.81 385.61 C 316.80 376.66 321.88 368.62 326.34 361.31 Z" />
<path fill="#151617" opacity="1.00" d=" M 381.30 362.18 C 386.64 359.38 393.60 364.06 393.21 370.02 C 393.46 376.59 384.62 380.70 379.72 376.32 C 374.77 372.89 375.94 364.58 381.30 362.18 M 383.37 366.33 C 381.43 367.35 380.43 370.23 381.80 372.09 C 383.25 374.69 387.89 373.93 388.31 370.90 C 389.53 367.96 386.21 364.72 383.37 366.33 Z" />
<path fill="#151617" opacity="1.00" d=" M 278.46 382.06 C 279.46 375.52 282.33 369.30 285.95 363.81 C 286.53 363.84 287.70 363.90 288.29 363.94 C 288.75 366.54 286.90 368.65 285.94 370.91 C 283.39 375.72 282.25 381.07 281.28 386.38 C 279.06 386.11 278.00 384.14 278.46 382.06 Z" />
<path fill="#151617" opacity="1.00" d=" M 574.15 364.26 C 577.81 362.51 582.22 365.19 582.99 369.01 C 584.12 374.29 583.85 379.99 581.97 385.06 C 580.79 388.01 577.96 391.42 574.43 390.52 C 569.88 387.82 568.39 382.04 568.77 377.06 C 568.92 372.46 569.64 366.68 574.15 364.26 M 573.62 371.41 C 573.14 375.74 572.12 380.77 574.35 384.76 C 576.32 387.17 578.42 383.75 578.76 381.84 C 579.64 377.32 580.10 372.39 578.22 368.06 C 576.32 368.57 573.74 368.94 573.62 371.41 Z" />
<path fill="#151617" opacity="1.00" d=" M 540.52 375.37 C 544.72 367.95 559.04 368.90 560.74 377.92 C 561.85 381.25 559.74 384.19 557.05 385.89 C 560.29 388.39 563.40 391.27 567.29 392.74 C 571.12 393.31 575.29 393.50 578.88 391.79 C 581.28 390.36 583.01 388.09 585.09 386.26 C 585.99 387.18 587.62 388.38 586.62 389.87 C 584.81 392.98 581.45 394.83 578.13 395.92 C 580.40 401.52 574.55 405.69 569.66 406.41 C 569.93 407.95 570.16 409.49 570.44 411.05 C 571.74 409.16 572.36 406.21 575.04 405.84 C 578.77 404.30 581.63 407.84 583.14 410.77 C 585.11 414.79 587.24 419.38 586.12 423.95 C 584.57 425.17 582.47 424.98 580.76 424.27 C 576.48 422.02 573.86 417.64 572.63 413.08 C 571.51 417.39 567.37 420.64 562.87 420.23 C 561.08 419.09 559.46 417.33 559.38 415.11 C 559.39 412.76 560.77 410.76 561.90 408.80 C 563.35 408.52 564.80 408.27 566.27 408.04 C 565.07 405.72 561.61 405.75 560.88 403.14 C 559.78 400.22 561.65 397.57 562.96 395.12 C 559.46 392.87 556.43 390.02 553.34 387.26 C 546.39 390.26 537.28 382.68 540.52 375.37 M 547.25 375.25 C 545.58 375.75 543.95 377.02 543.96 378.91 C 545.40 384.56 555.44 384.94 556.58 379.01 C 556.31 374.43 550.57 374.25 547.25 375.25 M 566.87 398.02 C 565.46 398.84 565.26 400.59 564.70 401.96 C 568.75 403.32 573.03 401.66 574.89 397.78 C 572.31 397.18 569.18 396.26 566.87 398.02 M 575.24 409.78 C 577.30 413.32 578.38 418.26 582.69 419.72 C 581.72 416.24 580.07 412.89 577.88 410.03 C 577.22 409.96 575.90 409.84 575.24 409.78 M 562.82 415.12 C 565.45 416.63 567.62 414.48 569.30 412.69 C 568.62 412.54 567.26 412.24 566.58 412.09 C 566.41 412.92 566.07 414.58 565.89 415.40 C 565.47 413.33 565.28 411.23 565.31 409.12 C 563.85 410.70 561.60 412.73 562.82 415.12 Z" />
<path fill="#151617" opacity="1.00" d=" M 443.52 373.82 C 453.01 373.23 462.50 372.36 472.01 372.14 C 474.16 372.17 477.63 372.13 476.82 375.27 C 473.40 376.90 469.52 376.92 465.85 377.51 C 456.93 378.51 448.00 379.37 439.06 380.11 C 437.11 380.17 434.10 380.49 433.54 378.02 C 433.00 376.25 434.61 374.90 436.16 374.56 C 438.57 374.06 441.06 374.02 443.52 373.82 Z" />
<path fill="#151617" opacity="1.00" d=" M 544.31 391.19 C 545.63 390.00 547.51 390.30 548.89 391.25 C 551.87 392.97 555.12 395.44 555.50 399.13 C 555.80 402.97 555.80 406.94 554.76 410.68 C 554.02 413.34 551.26 415.84 548.38 414.67 C 546.17 413.44 545.04 411.00 544.22 408.73 C 542.76 404.29 541.91 399.56 542.30 394.87 C 542.35 393.40 543.16 392.08 544.31 391.19 M 550.07 411.07 C 551.31 406.90 551.89 402.40 550.99 398.11 C 550.66 395.96 548.27 395.73 546.63 395.21 C 545.91 400.67 547.04 406.44 550.07 411.07 Z" />
<path fill="#151617" opacity="1.00" d=" M 437.05 392.52 C 446.34 391.58 455.71 391.79 465.03 391.35 C 468.11 391.39 471.67 390.60 474.15 392.94 C 468.00 395.12 461.41 395.40 455.01 396.37 C 448.69 396.89 442.38 398.20 436.02 397.82 C 433.16 396.79 433.94 392.49 437.05 392.52 Z" />
<path fill="#151617" opacity="1.00" d=" M 441.96 414.29 C 451.30 413.09 460.64 411.79 470.05 411.33 C 471.93 411.19 473.80 411.49 475.65 411.86 C 475.65 412.63 475.66 414.19 475.67 414.97 C 469.96 416.66 463.98 417.10 458.13 418.06 C 451.74 418.85 445.42 420.28 438.98 420.53 C 436.79 420.56 435.41 418.22 436.26 416.28 C 437.76 414.79 439.99 414.64 441.96 414.29 Z" />
<path fill="#151617" opacity="1.00" d=" M 658.11 415.07 C 660.80 414.15 664.05 415.00 665.72 417.38 C 667.94 420.46 667.98 424.50 667.69 428.14 C 667.40 431.28 666.06 434.66 663.13 436.19 C 660.13 437.53 656.18 436.35 654.61 433.41 C 652.58 429.67 652.57 425.15 653.40 421.08 C 653.94 418.52 655.42 415.81 658.11 415.07 Z" />
<path fill="#151617" opacity="1.00" d=" M 744.16 417.27 C 747.25 415.80 751.08 417.54 752.51 420.54 C 754.86 425.25 754.86 431.38 751.97 435.85 C 749.94 439.19 744.79 439.86 742.05 437.05 C 739.01 433.84 738.84 429.02 739.34 424.88 C 739.67 421.81 741.16 418.54 744.16 417.27 Z" />
<path fill="#151617" opacity="1.00" d=" M 245.36 419.54 C 250.36 418.03 255.88 421.84 256.66 426.92 C 257.90 431.84 254.06 437.11 249.11 437.75 C 244.29 438.57 239.07 434.89 238.50 429.99 C 237.83 425.45 240.80 420.59 245.36 419.54 M 245.20 425.16 C 242.15 426.74 243.21 431.65 246.21 432.73 C 249.67 434.38 253.56 429.65 251.45 426.52 C 250.27 424.21 247.28 424.19 245.20 425.16 Z" />
<path fill="#151617" opacity="1.00" d=" M 563.11 421.88 C 570.79 420.90 578.68 428.08 577.21 435.95 C 577.01 438.81 575.10 441.82 572.03 442.13 C 569.01 441.62 566.96 439.12 564.94 437.06 C 562.62 434.46 559.73 431.76 559.61 428.04 C 559.45 425.44 561.55 423.64 563.11 421.88 M 564.21 427.29 C 563.16 429.61 565.72 431.32 566.87 433.06 C 568.50 434.57 570.04 437.28 572.60 436.85 C 573.33 433.91 573.04 430.48 570.79 428.26 C 569.20 426.32 566.34 426.65 564.21 427.29 Z" />
<path fill="#151617" opacity="1.00" d=" M 602.23 426.22 C 608.51 423.93 615.44 431.47 612.33 437.50 C 610.15 442.63 602.77 444.34 598.90 440.10 C 594.37 436.04 596.55 427.94 602.23 426.22 M 602.38 431.35 C 599.37 433.90 602.13 438.90 605.84 437.77 C 608.54 437.29 608.64 434.07 608.07 431.95 C 606.71 430.07 604.10 429.83 602.38 431.35 Z" />
<path fill="#151617" opacity="1.00" d=" M 818.45 431.03 C 825.66 426.76 835.44 427.78 841.71 433.31 C 849.91 440.51 851.13 454.05 844.81 462.85 C 838.65 472.20 823.47 473.13 815.97 464.97 C 814.47 463.72 814.80 461.08 816.90 460.71 C 819.22 461.16 820.81 463.16 822.92 464.14 C 828.40 467.29 835.93 465.90 839.96 461.03 C 846.70 453.74 845.06 440.62 836.58 435.37 C 832.20 432.33 826.52 432.72 821.73 434.48 C 819.50 435.36 818.66 432.68 818.45 431.03 Z" />
<path fill="#151617" opacity="1.00" d=" M 693.31 447.49 C 694.56 446.55 696.86 446.91 697.02 448.72 C 696.93 452.49 695.79 456.69 697.87 460.15 C 699.90 463.24 703.81 463.59 706.91 464.97 C 709.05 466.30 707.23 469.53 704.99 469.39 C 694.16 470.89 686.53 455.63 693.31 447.49 Z" />
<path fill="#151617" opacity="1.00" d=" M 399.35 457.36 C 406.00 454.14 414.03 461.12 411.85 468.15 C 410.63 474.89 401.25 477.30 396.69 472.38 C 392.04 468.22 393.60 459.70 399.35 457.36 M 400.32 462.40 C 398.34 464.41 398.32 468.46 401.14 469.74 C 403.77 471.22 407.38 469.04 407.18 465.98 C 407.75 462.27 403.02 460.28 400.32 462.40 Z" />
<path fill="#151617" opacity="1.00" d=" M 702.07 484.11 C 705.87 483.58 707.81 479.96 710.03 477.29 C 711.24 477.95 713.04 478.22 713.41 479.83 C 713.63 483.16 710.92 485.72 708.38 487.44 C 702.47 491.05 694.28 490.46 688.82 486.25 C 686.51 485.04 687.49 481.21 690.06 481.19 C 693.85 482.81 697.78 485.02 702.07 484.11 Z" />
<path fill="#151617" opacity="1.00" d=" M 252.51 491.40 C 259.24 487.89 268.07 487.93 274.05 492.94 C 279.90 498.11 281.93 506.51 281.32 514.06 C 281.78 516.67 276.93 516.90 277.40 514.14 C 276.93 507.76 276.42 500.38 271.03 496.03 C 264.50 490.70 254.60 493.52 249.21 499.17 C 246.71 501.72 245.48 506.71 248.87 509.07 C 254.20 512.08 260.49 508.19 266.03 509.95 C 270.26 512.37 270.06 518.05 269.72 522.28 C 268.47 522.33 267.22 522.39 265.97 522.44 C 265.72 519.66 265.46 516.89 264.93 514.16 C 260.00 513.63 255.07 515.46 250.17 514.35 C 245.47 513.52 241.84 508.77 242.37 504.01 C 242.98 498.28 247.47 493.73 252.51 491.40 Z" />
<path fill="#151617" opacity="1.00" d=" M 238.88 526.75 C 239.35 523.88 242.88 524.63 244.99 524.39 C 259.02 524.59 273.08 523.88 287.08 524.71 C 290.24 533.23 293.74 541.66 295.84 550.53 C 303.29 550.19 310.87 550.76 318.20 549.09 C 322.07 548.22 325.18 545.68 328.02 543.06 C 326.53 540.93 324.60 538.75 324.72 535.97 C 324.49 532.06 327.34 528.23 331.15 527.33 C 335.17 526.13 339.74 528.55 341.24 532.41 C 343.21 536.74 340.75 542.50 336.14 543.85 C 334.10 544.57 331.37 543.94 330.06 546.06 C 326.80 549.96 322.10 552.55 317.06 553.20 C 310.14 554.13 303.14 554.14 296.17 554.19 C 296.16 561.44 295.16 568.94 291.22 575.19 C 286.17 583.88 276.88 589.76 266.88 590.70 C 266.85 604.90 267.01 619.10 267.13 633.30 C 281.14 633.29 295.16 632.96 309.16 633.52 C 310.80 633.61 313.68 633.86 313.56 636.09 C 314.07 638.05 311.38 638.54 309.98 638.33 C 285.99 637.30 261.99 638.31 238.00 638.61 C 233.25 638.69 228.46 638.60 223.81 639.74 C 222.95 651.21 223.67 662.75 223.58 674.25 C 227.53 674.27 231.48 674.26 235.44 674.24 C 235.62 667.24 234.91 660.22 235.36 653.24 C 235.44 650.88 238.05 650.27 239.97 650.35 C 257.98 650.01 275.98 648.81 293.99 648.39 C 299.26 648.67 297.90 655.22 298.13 658.81 C 302.26 659.07 307.02 657.50 310.69 659.95 C 306.51 660.47 302.29 660.23 298.09 660.41 C 298.14 665.01 298.14 669.62 298.26 674.24 C 307.19 674.14 316.12 674.15 325.05 674.11 C 326.36 673.95 327.60 674.29 328.59 675.18 C 318.62 676.38 308.53 675.61 298.52 676.43 C 298.28 678.52 298.31 680.70 297.49 682.69 C 296.10 683.39 294.53 682.93 293.06 682.91 C 292.72 680.84 292.58 678.76 292.50 676.68 C 275.76 676.75 259.02 676.93 242.28 677.45 C 240.58 680.32 236.95 679.95 235.04 677.54 C 231.23 677.46 227.42 677.49 223.62 677.64 C 223.51 684.44 223.62 691.24 223.81 698.04 C 266.96 696.86 310.11 695.87 353.27 695.07 C 357.38 694.85 361.50 694.73 365.61 695.03 C 365.67 695.73 365.78 697.14 365.84 697.84 C 318.54 699.48 271.18 699.66 223.87 701.22 C 223.77 707.67 223.87 714.12 223.92 720.58 C 275.58 719.76 327.22 718.06 378.87 717.25 C 378.53 718.20 379.57 720.66 377.92 720.48 C 330.95 721.64 283.98 722.50 237.01 723.75 C 232.71 723.95 228.37 723.57 224.10 724.18 C 223.66 730.08 224.05 736.01 223.92 741.92 C 227.88 741.25 231.90 740.92 235.93 740.86 C 271.37 740.32 306.81 739.53 342.25 738.70 C 342.61 738.38 343.31 737.75 343.66 737.43 C 354.15 737.55 364.65 737.09 375.14 737.37 C 376.40 737.55 378.73 737.33 378.85 739.13 C 379.37 740.93 377.94 742.80 376.02 742.47 C 329.00 743.45 281.98 744.68 234.95 745.35 C 231.48 745.53 227.70 745.56 224.74 747.65 C 223.54 748.35 222.39 749.44 220.88 749.30 C 219.90 748.23 219.13 747.00 218.31 745.83 C 213.71 745.97 207.86 750.19 204.23 745.69 C 200.65 740.66 203.91 734.50 203.80 729.03 C 200.54 723.20 201.42 716.40 202.54 710.12 C 203.38 707.50 200.95 705.49 200.84 702.97 C 200.02 696.32 202.02 689.78 203.25 683.31 C 201.44 682.10 199.55 680.48 200.03 678.03 C 200.40 670.24 202.81 662.07 208.14 656.20 C 210.73 653.18 214.97 653.14 218.63 653.23 C 218.59 648.50 218.00 643.67 219.03 639.01 C 219.65 636.24 222.17 634.19 225.05 634.34 C 237.64 633.61 250.26 633.84 262.87 633.47 C 262.91 619.28 262.86 605.09 262.86 590.90 C 255.16 590.33 247.36 587.76 241.79 582.23 C 234.28 575.43 231.13 565.01 231.50 555.09 C 227.21 555.26 222.91 555.51 218.63 555.08 C 218.57 554.25 218.44 552.60 218.37 551.78 C 222.79 551.11 227.26 551.30 231.71 551.28 C 233.14 542.84 236.44 534.91 238.88 526.75 M 235.74 551.11 C 242.07 550.76 248.42 550.90 254.76 550.92 C 255.79 547.11 258.80 543.52 263.05 543.56 C 267.52 543.11 270.58 547.06 271.99 550.80 C 278.62 550.48 285.25 550.72 291.88 550.61 C 290.01 543.81 287.57 537.19 285.08 530.59 C 270.64 530.77 256.19 530.55 241.75 530.78 C 239.48 537.47 237.25 544.20 235.74 551.11 M 331.31 532.32 C 328.73 533.65 328.83 538.26 331.65 539.26 C 334.43 541.00 337.90 537.95 337.19 534.94 C 337.07 532.08 333.52 531.03 331.31 532.32 M 260.36 549.26 C 259.55 551.27 258.78 554.54 261.33 555.64 C 263.86 557.29 267.41 554.93 267.14 551.99 C 267.27 548.65 262.70 547.22 260.36 549.26 M 271.97 554.72 C 270.68 556.85 269.15 558.84 266.82 559.91 C 266.57 568.91 266.75 577.91 266.87 586.91 C 272.37 585.84 277.89 583.92 282.04 580.00 C 289.44 573.73 292.78 563.77 292.21 554.24 C 285.48 554.48 278.65 553.90 271.97 554.72 M 235.33 554.93 C 235.27 562.21 236.85 569.77 241.24 575.73 C 246.20 582.52 254.41 586.43 262.67 587.25 C 262.86 578.50 262.67 569.74 262.68 560.98 C 259.20 560.12 256.35 557.85 254.51 554.82 C 248.12 554.87 241.72 554.84 235.33 554.93 M 241.03 656.28 C 241.20 662.21 241.30 668.15 241.35 674.09 C 258.36 674.06 275.38 674.16 292.40 673.88 C 292.53 667.34 292.16 660.79 292.15 654.25 C 275.11 654.93 258.07 655.57 241.03 656.28 M 211.52 659.45 C 207.92 663.34 206.19 668.62 205.50 673.80 C 207.19 673.66 208.98 672.60 210.65 673.28 C 213.18 674.45 216.00 674.24 218.71 674.26 C 218.78 668.75 218.74 663.23 218.54 657.72 C 216.19 658.01 213.30 657.51 211.52 659.45 M 210.70 678.45 C 206.56 684.56 205.91 692.26 205.45 699.42 C 206.13 698.78 207.48 697.49 208.16 696.84 C 211.55 698.25 215.24 698.48 218.86 698.39 C 218.89 691.45 218.77 684.50 218.79 677.56 C 216.08 677.75 213.38 678.03 210.70 678.45 M 208.81 704.86 C 206.46 709.58 206.57 715.11 206.04 720.26 C 210.35 719.48 214.64 720.20 218.85 721.18 C 219.34 714.54 218.82 707.90 218.90 701.26 C 215.37 701.60 210.77 701.16 208.81 704.86 M 209.10 727.05 C 207.44 732.07 206.99 737.50 207.38 742.76 C 211.29 742.56 215.14 741.82 219.06 741.63 C 219.08 735.82 219.09 730.02 219.10 724.22 C 215.79 724.73 210.75 723.13 209.10 727.05 Z" />
<path fill="#151617" opacity="1.00" d=" M 814.84 559.03 C 826.79 550.05 839.35 541.90 851.86 533.74 C 852.50 534.13 853.78 534.90 854.41 535.29 C 853.27 538.10 850.32 539.33 848.00 541.00 C 837.60 547.88 827.42 555.12 816.92 561.86 C 816.40 561.15 815.36 559.74 814.84 559.03 Z" />
<path fill="#151617" opacity="1.00" d=" M 550.99 536.08 C 555.28 532.55 562.41 534.89 564.05 540.10 C 566.11 545.05 562.21 550.99 556.97 551.44 C 553.94 552.06 551.30 550.13 548.93 548.58 C 541.56 553.33 534.20 558.12 526.66 562.60 C 526.02 561.67 525.43 560.72 524.85 559.77 C 532.08 554.53 539.77 549.95 547.44 545.39 C 547.50 542.00 547.89 538.12 550.99 536.08 M 554.39 539.48 C 552.74 540.22 552.18 542.34 552.45 544.01 C 552.99 547.32 558.53 547.90 559.56 544.60 C 561.37 541.44 557.51 537.68 554.39 539.48 Z" />
<path fill="#151617" opacity="1.00" d=" M 837.57 559.62 C 841.12 557.36 844.15 554.35 847.97 552.52 C 848.50 553.10 849.55 554.25 850.07 554.83 C 844.47 559.71 838.23 563.83 832.18 568.13 C 831.57 567.66 830.35 566.73 829.74 566.26 C 831.54 563.23 834.81 561.63 837.57 559.62 Z" />
<path fill="#151617" opacity="1.00" d=" M 602.40 555.53 C 607.72 553.55 613.91 558.30 613.39 563.96 C 613.38 570.43 604.73 574.61 599.86 570.14 C 594.70 566.40 596.32 557.34 602.40 555.53 M 603.17 560.17 C 599.97 561.70 601.48 567.31 605.03 567.31 C 607.71 567.71 609.35 564.34 608.60 562.14 C 607.99 559.84 605.10 559.34 603.17 560.17 Z" />
<path fill="#151617" opacity="1.00" d=" M 850.53 567.09 C 854.15 564.02 858.12 561.40 862.15 558.90 C 862.96 559.78 864.22 560.56 863.83 561.99 C 860.29 564.92 856.43 567.45 852.66 570.08 C 851.92 569.09 851.20 568.09 850.53 567.09 Z" />
<path fill="#151617" opacity="1.00" d=" M 322.59 607.94 C 322.14 605.87 324.05 604.81 325.86 604.90 C 349.26 604.83 372.67 604.94 396.08 604.82 C 398.40 604.57 399.68 606.93 399.38 608.98 C 399.35 621.38 399.39 633.79 399.37 646.19 C 407.23 646.14 415.68 647.21 421.97 652.36 C 426.73 651.94 431.98 654.87 432.60 659.93 C 433.95 666.72 425.24 672.56 419.54 668.45 C 414.28 665.53 414.87 658.20 418.47 654.17 C 412.87 650.45 405.94 650.06 399.44 649.81 C 399.21 655.19 399.46 660.57 399.36 665.96 C 399.56 667.75 397.62 668.94 396.02 668.84 C 372.98 668.79 349.94 668.92 326.91 668.82 C 325.04 668.78 322.10 668.61 322.61 665.98 C 322.65 646.63 322.57 627.28 322.59 607.94 M 326.80 609.29 C 326.82 627.68 326.68 646.07 326.90 664.45 C 349.64 664.78 372.39 664.54 395.14 664.49 C 395.13 646.07 395.18 627.66 395.11 609.25 C 372.34 609.12 349.57 609.35 326.80 609.29 M 421.24 658.30 C 419.32 660.64 420.78 665.07 423.97 665.12 C 427.00 665.41 429.28 661.09 427.15 658.82 C 425.76 656.90 423.01 657.01 421.24 658.30 Z" />
<path fill="#151617" opacity="1.00" d=" M 341.30 620.61 C 342.80 620.07 344.31 619.47 345.93 619.46 C 355.64 619.20 365.36 619.39 375.08 619.26 C 376.88 619.23 378.64 619.64 380.40 620.03 C 380.06 620.55 379.39 621.58 379.06 622.10 C 371.98 624.39 364.38 624.00 357.03 624.53 C 352.37 624.54 347.68 625.49 343.05 624.76 C 341.02 624.61 341.71 621.91 341.30 620.61 Z" />
<path fill="#151617" opacity="1.00" d=" M 345.09 636.36 C 358.52 634.49 372.16 634.43 385.70 634.21 C 385.70 634.81 385.70 635.99 385.70 636.58 C 378.27 638.22 370.63 638.51 363.10 639.42 C 357.03 639.91 350.98 641.20 344.88 641.06 C 342.16 640.50 342.34 636.62 345.09 636.36 Z" />
<path fill="#151617" opacity="1.00" d=" M 253.41 664.18 C 260.41 663.62 267.58 663.41 274.55 664.38 C 275.96 666.87 272.66 666.61 271.12 666.89 C 265.23 667.36 259.32 667.37 253.43 667.32 C 253.41 666.26 253.40 665.22 253.41 664.18 Z" />
<path fill="#151617" opacity="1.00" d=" M 787.93 665.24 C 789.45 663.81 791.80 665.16 791.45 667.14 C 791.87 680.42 791.76 693.71 792.12 707.00 C 792.14 711.75 792.60 716.52 792.25 721.28 C 791.38 721.29 789.66 721.30 788.79 721.31 C 787.85 705.88 788.05 690.39 787.73 674.94 C 787.76 671.70 787.39 668.44 787.93 665.24 Z" />
<path fill="#151617" opacity="1.00" d=" M 357.48 673.20 C 361.54 672.41 365.75 672.88 369.87 672.91 C 369.84 673.60 369.78 674.96 369.75 675.65 C 365.76 675.90 361.76 675.94 357.77 675.84 C 357.64 674.96 357.54 674.07 357.48 673.20 Z" />
<path fill="#151617" opacity="1.00" d=" M 770.78 674.88 C 772.04 675.24 774.49 674.81 774.23 676.91 C 774.60 696.25 774.56 715.62 775.15 734.96 C 775.07 739.66 775.64 744.37 775.25 749.06 C 774.30 749.41 773.34 749.71 772.38 749.97 C 771.79 748.05 771.44 746.07 771.46 744.07 C 770.96 725.04 770.70 706.01 770.41 686.97 C 770.39 682.94 770.14 678.88 770.78 674.88 Z" />
<path fill="#151617" opacity="1.00" d=" M 231.79 690.46 C 234.44 689.61 237.22 689.36 239.98 689.33 C 249.33 689.16 258.68 688.66 268.02 689.12 C 273.51 689.42 279.47 688.65 284.48 691.38 C 273.08 693.30 261.47 693.31 249.96 694.08 C 243.88 694.20 237.76 695.09 231.70 694.25 C 231.72 693.30 231.77 691.40 231.79 690.46 Z" />
<path fill="#151617" opacity="1.00" d=" M 803.97 691.83 C 804.78 691.70 806.40 691.43 807.21 691.29 C 807.98 694.12 808.70 696.99 809.02 699.92 C 810.04 702.16 807.33 702.54 805.92 702.94 C 804.83 699.33 804.06 695.61 803.97 691.83 Z" />
<path fill="#151617" opacity="1.00" d=" M 430.15 706.97 C 434.74 704.87 439.07 702.03 443.95 700.65 C 445.85 700.03 446.38 702.28 445.72 703.60 C 436.84 708.33 427.62 712.43 418.77 717.22 C 418.08 716.24 417.30 715.31 416.92 714.17 C 420.84 710.97 425.75 709.38 430.15 706.97 Z" />
<path fill="#151617" opacity="1.00" d=" M 235.19 710.15 C 231.79 710.54 231.63 705.33 235.00 705.27 C 248.65 704.27 262.38 704.50 276.06 704.93 C 279.32 705.25 283.14 704.93 285.67 707.43 C 280.86 708.53 275.90 708.09 271.01 708.37 C 259.05 708.63 247.13 709.77 235.19 710.15 Z" />
<path fill="#151617" opacity="1.00" d=" M 424.58 724.61 C 433.02 720.54 441.11 715.56 450.01 712.55 C 450.38 713.23 451.13 714.58 451.51 715.26 C 446.58 718.72 440.76 720.57 435.55 723.53 C 430.60 725.89 425.91 728.84 420.74 730.71 C 420.52 730.03 420.08 728.67 419.85 728.00 C 420.63 726.11 422.99 725.64 424.58 724.61 Z" />
<path fill="#151617" opacity="1.00" d=" M 437.31 734.41 C 440.67 732.13 444.31 730.17 448.09 728.70 C 449.28 729.48 449.71 730.57 449.40 731.96 C 445.92 734.41 441.98 736.16 438.13 737.94 C 437.69 736.94 435.83 735.30 437.31 734.41 Z" />
</g>
</g></svg>